<svg width="205" height="45" viewBox="0 0 205 45" fill="none" xmlns="http://www.w3.org/2000/svg">
<g clip-path="url(#clip0_2551_65)">
<g clip-path="url(#clip1_2551_65)">
<g clip-path="url(#clip2_2551_65)">
<g clip-path="url(#clip3_2551_65)">
<g clip-path="url(#clip4_2551_65)">
<g clip-path="url(#clip5_2551_65)">
<g clip-path="url(#clip6_2551_65)">
<path d="M44.6607 27.3281C43.9375 27.3281 43.2229 27.2161 42.517 26.9921C41.8111 26.7638 41.2027 26.3804 40.6917 25.8419L41.4322 23.1537C41.7787 23.7352 42.2269 24.1941 42.7769 24.5301C43.3269 24.8661 43.9462 25.0341 44.6347 25.0341C45.4316 25.0341 46.1245 24.7584 46.7135 24.207C47.2981 23.6556 47.5904 22.6906 47.5904 21.312V6.86285H50.1629V21.5123C50.1629 22.8435 49.9074 23.9399 49.3963 24.8015C48.8853 25.6631 48.2119 26.2985 47.3761 26.7078C46.5402 27.1214 45.6351 27.3281 44.6607 27.3281ZM65.4545 27.0567H55.4376V6.86285H65.4545V9.15041H58.0101V13.4606H63.876V15.7482H58.0101V24.7692H65.4545V27.0567ZM79.6159 14.6238L74.9062 27.7288L67.0785 6.86285H69.6899L74.2956 18.9792C74.4602 19.3971 74.5944 19.7977 74.6984 20.1811C74.8066 20.5602 74.9192 21.0126 75.0362 21.5382C75.1574 21.0126 75.2744 20.5602 75.387 20.1811C75.4995 19.7977 75.6316 19.3971 75.7832 18.9792L80.4279 6.1908L85.053 18.9792C85.1873 19.354 85.3194 19.7309 85.4493 20.11C85.5749 20.4935 85.6918 20.9695 85.8001 21.5382C85.917 20.9695 86.0361 20.4935 86.1574 20.11C86.2786 19.7309 86.415 19.354 86.5666 18.9792L91.1658 6.86285H93.6018L85.8001 27.7288L81.1035 14.6238C80.9692 14.236 80.8415 13.8591 80.7202 13.4929C80.6033 13.1267 80.4842 12.6593 80.3629 12.0906C80.2417 12.6593 80.1204 13.1267 79.9991 13.4929C79.8779 13.8591 79.7501 14.236 79.6159 14.6238ZM106.73 27.0567H96.7134V6.86285H106.73V9.15041H99.2859V13.4606H105.152V15.7482H99.2859V24.7692H106.73V27.0567ZM120.528 27.0567H110.92V6.86285H113.493V24.7692H120.528V27.0567ZM125.855 27.3281C125.131 27.3281 124.417 27.2161 123.711 26.9921C123.001 26.7638 122.39 26.3804 121.879 25.8419L122.626 23.1537C122.973 23.7352 123.421 24.1941 123.971 24.5301C124.516 24.8661 125.136 25.0341 125.829 25.0341C126.625 25.0341 127.318 24.7584 127.907 24.207C128.492 23.6556 128.784 22.6906 128.784 21.312V6.86285H131.357V21.5123C131.357 22.8435 131.101 23.9399 130.59 24.8015C130.079 25.6631 129.406 26.2985 128.57 26.7078C127.734 27.1214 126.829 27.3281 125.855 27.3281ZM145.745 27.4638C144.286 27.4638 142.913 27.1903 141.627 26.6432C140.341 26.096 139.213 25.3443 138.243 24.3879C137.272 23.4315 136.515 22.3158 135.969 21.0406C135.419 19.7697 135.144 18.4084 135.144 16.9566C135.144 15.5091 135.419 14.1499 135.969 12.879C136.515 11.6038 137.272 10.4881 138.243 9.53167C139.213 8.57529 140.341 7.82354 141.627 7.27642C142.913 6.7293 144.286 6.45574 145.745 6.45574C147.218 6.45574 148.593 6.7293 149.87 7.27642C151.148 7.82354 152.272 8.57529 153.242 9.53167C154.212 10.4881 154.972 11.6038 155.522 12.879C156.072 14.1499 156.347 15.5091 156.347 16.9566C156.347 18.4084 156.072 19.7697 155.522 21.0406C154.972 22.3158 154.212 23.4315 153.242 24.3879C152.272 25.3443 151.148 26.096 149.87 26.6432C148.593 27.1903 147.218 27.4638 145.745 27.4638ZM145.745 25.0341C147.235 25.0341 148.58 24.6722 149.779 23.9485C150.983 23.2247 151.936 22.249 152.638 21.0212C153.335 19.7934 153.684 18.4385 153.684 16.9566C153.684 15.4617 153.335 14.1046 152.638 12.8855C151.936 11.6663 150.983 10.6948 149.779 9.97109C148.58 9.24304 147.235 8.87901 145.745 8.87901C144.256 8.87901 142.913 9.24304 141.718 9.97109C140.523 10.6948 139.572 11.6663 138.866 12.8855C138.16 14.1046 137.807 15.4617 137.807 16.9566C137.807 18.4385 138.16 19.7934 138.866 21.0212C139.572 22.249 140.523 23.2247 141.718 23.9485C142.913 24.6722 144.256 25.0341 145.745 25.0341ZM166.721 27.3281C165.444 27.3281 164.307 27.046 163.311 26.4816C162.319 25.9216 161.542 25.144 160.979 24.1488C160.416 23.1537 160.134 22.0056 160.134 20.7045V6.86285H162.707V20.6141C162.707 21.9453 163.09 23.0158 163.856 23.8257C164.623 24.6313 165.593 25.0341 166.767 25.0341C167.923 25.0341 168.889 24.6356 169.664 23.8386C170.439 23.0373 170.827 21.9926 170.827 20.7045V6.86285H173.308V20.6141C173.308 21.9323 173.024 23.0955 172.457 24.1036C171.894 25.116 171.121 25.9065 170.138 26.4752C169.151 27.0438 168.012 27.3281 166.721 27.3281ZM182.955 27.3281C181.755 27.3281 180.67 27.089 179.7 26.6109C178.73 26.1284 177.959 25.5446 177.388 24.8596L178.128 21.7643C178.553 22.6001 179.185 23.354 180.025 24.026C180.865 24.6981 181.872 25.0341 183.046 25.0341C184.115 25.0341 184.999 24.6981 185.696 24.026C186.398 23.354 186.748 22.5247 186.748 21.5382C186.748 20.8187 186.575 20.2285 186.229 19.7676C185.882 19.3023 185.49 18.9339 185.053 18.6625C184.62 18.3954 184.276 18.2016 184.02 18.081L181.539 16.8273C181.144 16.6162 180.659 16.3233 180.083 15.9485C179.503 15.5737 178.994 15.0589 178.557 14.4041C178.124 13.7449 177.907 12.8919 177.907 11.8451C177.907 10.8284 178.143 9.9237 178.615 9.13103C179.087 8.33835 179.75 7.71584 180.603 7.2635C181.452 6.81546 182.424 6.59144 183.52 6.59144C184.603 6.59144 185.557 6.78315 186.385 7.16656C187.212 7.54567 187.859 7.9377 188.327 8.34266L187.58 11.438C187.203 10.809 186.647 10.2188 185.91 9.66738C185.174 9.11595 184.341 8.84023 183.409 8.84023C182.509 8.84023 181.788 9.10518 181.246 9.63507C180.705 10.165 180.434 10.8198 180.434 11.5995C180.434 12.1983 180.573 12.6916 180.85 13.0793C181.127 13.4671 181.443 13.7729 181.798 13.9969C182.149 14.221 182.437 14.3933 182.662 14.5139L185.189 15.7675C185.493 15.9183 185.874 16.1294 186.333 16.4008C186.787 16.6679 187.242 17.0233 187.697 17.4671C188.147 17.9065 188.522 18.445 188.821 19.0826C189.124 19.7159 189.275 20.4827 189.275 21.3831C189.275 22.5333 189 23.5565 188.45 24.4525C187.9 25.3529 187.151 26.0573 186.203 26.5656C185.259 27.074 184.176 27.3281 182.955 27.3281ZM197.123 9.15041H191.705V6.86285H205.106V9.15041H199.695V27.0567H197.123V9.15041Z" fill="#111111"/>
</g>
</g>
<g clip-path="url(#clip7_2551_65)">
<g clip-path="url(#clip8_2551_65)">
<path d="M43.1501 37.316L42.8501 36.2679H41.4163L41.1203 37.316H40.6975L42.0227 32.8134H42.2373L43.5703 37.316H43.1501ZM42.121 33.8063L41.5275 35.8808H42.7428L42.1455 33.8063L42.1339 33.6391L42.121 33.8063ZM48.1832 34.4802C48.1832 34.6337 48.1543 34.7773 48.0966 34.911C48.0388 35.0448 47.9595 35.1618 47.8587 35.2621C47.7578 35.3633 47.6393 35.4426 47.5031 35.5001C47.3678 35.5575 47.2235 35.5862 47.07 35.5862H46.0435V37.316H45.6362V32.8134H47.07C47.2235 32.8134 47.3678 32.8421 47.5031 32.8996C47.6393 32.957 47.7578 33.0359 47.8587 33.1362C47.9595 33.2374 48.0388 33.3553 48.0966 33.4899C48.1543 33.6254 48.1832 33.7694 48.1832 33.922V34.4802ZM47.7759 34.4802V33.922C47.7759 33.8217 47.757 33.7278 47.719 33.6404C47.682 33.5538 47.6303 33.4775 47.5639 33.4115C47.4975 33.3454 47.4204 33.2936 47.3325 33.2558C47.2454 33.2181 47.1515 33.1992 47.0506 33.1992H46.0435V35.1991H47.0506C47.1515 35.1991 47.2454 35.1807 47.3325 35.1438C47.4204 35.1061 47.4975 35.0547 47.5639 34.9895C47.6303 34.9243 47.682 34.8485 47.719 34.7619C47.757 34.6753 47.7759 34.5814 47.7759 34.4802ZM50.169 34.4686H49.7799C49.7023 34.4686 49.6295 34.4832 49.5614 34.5124C49.4924 34.5415 49.433 34.5814 49.383 34.632C49.3321 34.6817 49.292 34.7408 49.2627 34.8094C49.2334 34.8772 49.2188 34.9496 49.2188 35.0268V37.316H48.8309V34.1008H48.9602L49.1709 34.4275C49.2597 34.3083 49.3709 34.2135 49.5045 34.1432C49.6381 34.0729 49.7838 34.0378 49.9415 34.0378H50.169V34.4686ZM52.8453 36.4338C52.8453 36.5633 52.8203 36.6859 52.7703 36.8016C52.7211 36.9165 52.6535 37.0168 52.5673 37.1026C52.4811 37.1883 52.3803 37.2556 52.2648 37.3045C52.1484 37.3542 52.0251 37.3791 51.895 37.3791H51.6364C51.5054 37.3791 51.3822 37.3542 51.2667 37.3045C51.1512 37.2556 51.0503 37.1883 50.9641 37.1026C50.8779 37.0168 50.8099 36.9165 50.7599 36.8016C50.7107 36.6859 50.6862 36.5633 50.6862 36.4338V34.9831C50.6862 34.8536 50.7107 34.731 50.7599 34.6152C50.8099 34.5003 50.8779 34.4 50.9641 34.3143C51.0503 34.2286 51.1512 34.1612 51.2667 34.1124C51.3822 34.0626 51.5054 34.0378 51.6364 34.0378H51.895C52.0251 34.0378 52.1484 34.0626 52.2648 34.1124C52.3803 34.1612 52.4811 34.2286 52.5673 34.3143C52.6535 34.4 52.7211 34.5003 52.7703 34.6152C52.8203 34.731 52.8453 34.8536 52.8453 34.9831V35.7393H51.074V36.4556C51.074 36.5328 51.0887 36.6057 51.118 36.6743C51.1482 36.742 51.1882 36.8012 51.2382 36.8518C51.2891 36.9015 51.3485 36.9409 51.4166 36.9701C51.4847 37.0001 51.558 37.0151 51.6364 37.0151H51.895C51.9726 37.0151 52.0458 37.0001 52.1148 36.9701C52.1829 36.9409 52.2423 36.9015 52.2932 36.8518C52.3432 36.8012 52.3828 36.742 52.4121 36.6743C52.4423 36.6057 52.4574 36.5328 52.4574 36.4556V36.2422L52.8453 36.3052V36.4338ZM52.4574 35.4383V34.9612C52.4574 34.884 52.4423 34.8112 52.4121 34.7426C52.3828 34.6748 52.3432 34.6157 52.2932 34.5651C52.2423 34.5154 52.1829 34.4759 52.1148 34.4468C52.0458 34.4168 51.9726 34.4017 51.895 34.4017H51.6364C51.558 34.4017 51.4847 34.4168 51.4166 34.4468C51.3485 34.4759 51.2891 34.5154 51.2382 34.5651C51.1882 34.6157 51.1482 34.6748 51.118 34.7426C51.0887 34.8112 51.074 34.884 51.074 34.9612V35.4383H52.4574ZM55.8434 36.4994C55.8434 36.6297 55.8171 36.7485 55.7645 36.8556C55.712 36.9637 55.6404 37.0563 55.5499 37.1334C55.4594 37.2114 55.3547 37.2719 55.2358 37.3148C55.1168 37.3576 54.9923 37.3791 54.8621 37.3791H54.6023C54.4721 37.3791 54.3476 37.3542 54.2286 37.3045C54.1097 37.2556 54.0054 37.1883 53.9157 37.1026C53.827 37.0168 53.7554 36.9165 53.7011 36.8016C53.6477 36.6859 53.621 36.5633 53.621 36.4338V36.3052L54.0088 36.2422V36.4556C54.0088 36.5328 54.0252 36.6057 54.058 36.6743C54.0907 36.742 54.1347 36.8012 54.1898 36.8518C54.2441 36.9015 54.307 36.9409 54.3786 36.9701C54.4501 37.0001 54.5247 37.0151 54.6023 37.0151H54.8621C54.9397 37.0151 55.0142 37.0035 55.0858 36.9804C55.1573 36.9572 55.2211 36.9242 55.2771 36.8813C55.3323 36.8385 55.3762 36.7866 55.409 36.7257C55.4418 36.6649 55.4581 36.5958 55.4581 36.5187C55.4581 36.4038 55.4327 36.3095 55.3818 36.2357C55.3319 36.1628 55.2651 36.1015 55.1815 36.0518C55.0987 36.0029 55.0043 35.9622 54.8983 35.9296C54.7914 35.8971 54.6824 35.8645 54.5712 35.8319C54.46 35.8002 54.351 35.7633 54.2441 35.7213C54.1381 35.6793 54.0437 35.6244 53.961 35.5567C53.8774 35.4881 53.8106 35.4028 53.7606 35.3007C53.7097 35.1978 53.6843 35.0701 53.6843 34.9175C53.6843 34.7871 53.7097 34.6684 53.7606 34.5612C53.8106 34.4532 53.8787 34.3606 53.9649 34.2834C54.0511 34.2054 54.1515 34.145 54.2661 34.1021C54.3807 34.0592 54.5036 34.0378 54.6346 34.0378H54.8621C54.9923 34.0378 55.1151 34.0626 55.2306 34.1124C55.3469 34.1612 55.4482 34.2286 55.5344 34.3143C55.6206 34.4 55.6883 34.5003 55.7374 34.6152C55.7865 34.731 55.8111 34.8536 55.8111 34.9831V34.9959L55.4232 35.0589V34.9612C55.4232 34.884 55.4086 34.8112 55.3793 34.7426C55.35 34.6748 55.3099 34.6157 55.259 34.5651C55.209 34.5154 55.1496 34.4759 55.0806 34.4468C55.0125 34.4168 54.9397 34.4017 54.8621 34.4017H54.6346C54.5561 34.4017 54.4829 34.4133 54.4148 34.4365C54.3467 34.4596 54.2872 34.4926 54.2364 34.5355C54.1864 34.5784 54.1463 34.6302 54.1161 34.6911C54.0868 34.752 54.0722 34.821 54.0722 34.8982C54.0722 35.0096 54.0976 35.1001 54.1485 35.1695C54.1984 35.2399 54.2652 35.299 54.3489 35.347C54.4316 35.395 54.5264 35.4353 54.6333 35.4679C54.7393 35.5005 54.8475 35.5339 54.9578 35.5682C55.0681 35.6034 55.1767 35.6428 55.2836 35.6866C55.3896 35.7303 55.484 35.7869 55.5667 35.8563C55.6503 35.9249 55.7171 36.0111 55.7671 36.1148C55.818 36.2186 55.8434 36.3468 55.8434 36.4994ZM58.1188 37.316H57.7646C57.6474 37.316 57.5366 37.2942 57.4323 37.2505C57.328 37.2059 57.2375 37.145 57.1608 37.0678C57.0841 36.9907 57.0229 36.9006 56.9772 36.7978C56.9324 36.6957 56.91 36.586 56.91 36.4685V34.4686H56.3295V34.1008H56.91V33.3279L57.2979 33.2661V34.1008H58.1188V34.4686H57.2979V36.4865C57.2979 36.5517 57.3099 36.6121 57.3341 36.6679C57.3582 36.7236 57.3914 36.772 57.4336 36.8132C57.4759 36.8552 57.5254 36.8882 57.5823 36.9122C57.6392 36.9362 57.7 36.9482 57.7646 36.9482H58.1188V37.316ZM59.3807 33.3279H58.9295V32.8134H59.3807V33.3279ZM59.3496 37.316H58.9605V34.1008H59.3496V37.316ZM62.4461 37.7212C62.4461 37.8506 62.4211 37.9698 62.3711 38.0787C62.3219 38.1876 62.2543 38.2811 62.1681 38.3591C62.0819 38.4362 61.9806 38.4963 61.8643 38.5391C61.7488 38.582 61.6259 38.6034 61.4958 38.6034H61.3342C61.204 38.6034 61.0812 38.582 60.9657 38.5391C60.8494 38.4963 60.7481 38.4362 60.6619 38.3591C60.5757 38.2811 60.508 38.1876 60.4589 38.0787C60.4089 37.9698 60.3839 37.8506 60.3839 37.7212V37.7083C60.3839 37.5831 60.4072 37.4682 60.4537 37.3636C60.5003 37.259 60.5636 37.1677 60.6438 37.0897C60.5421 37.0288 60.4615 36.9469 60.402 36.8441C60.3417 36.7403 60.3115 36.6254 60.3115 36.4994C60.3115 36.3862 60.3357 36.2812 60.3839 36.1843C60.4322 36.0865 60.4986 36.0077 60.583 35.9476C60.4822 35.8593 60.4025 35.7534 60.3439 35.63C60.2844 35.5065 60.2546 35.3715 60.2546 35.2249V34.9831C60.2546 34.8536 60.2796 34.731 60.3296 34.6152C60.3788 34.5003 60.4464 34.4 60.5326 34.3143C60.6188 34.2286 60.7196 34.1612 60.8351 34.1124C60.9515 34.0626 61.0748 34.0378 61.2049 34.0378H61.3665C61.5242 34.0378 61.6699 34.0729 61.8035 34.1432C61.9371 34.2135 62.0478 34.3083 62.1358 34.4275L62.3478 34.1008H62.4771V35.2249C62.4771 35.3543 62.4525 35.4769 62.4034 35.5927C62.3534 35.7076 62.2853 35.8079 62.1991 35.8936C62.1129 35.9794 62.0121 36.0471 61.8966 36.0968C61.7802 36.1457 61.657 36.1701 61.5268 36.1701H60.9657C60.9209 36.1701 60.8787 36.1791 60.839 36.1971C60.7985 36.2143 60.7632 36.2379 60.733 36.2679C60.7028 36.297 60.6791 36.3318 60.6619 36.3721C60.6455 36.4132 60.6373 36.4556 60.6373 36.4994C60.6373 36.544 60.6455 36.586 60.6619 36.6254C60.6791 36.6649 60.7028 36.7 60.733 36.7309C60.7632 36.7609 60.7985 36.7845 60.839 36.8016C60.8787 36.8179 60.9209 36.826 60.9657 36.826H61.4958C61.6259 36.826 61.7488 36.8475 61.8643 36.8904C61.9806 36.9332 62.0819 36.9937 62.1681 37.0717C62.2543 37.1489 62.3219 37.2419 62.3711 37.3508C62.4211 37.4597 62.4461 37.5788 62.4461 37.7083V37.7212ZM62.0918 35.2467V34.9612C62.0918 34.884 62.0772 34.8112 62.0478 34.7426C62.0185 34.6748 61.978 34.6157 61.9263 34.5651C61.8746 34.5154 61.8147 34.4759 61.7466 34.4468C61.6777 34.4168 61.6044 34.4017 61.5268 34.4017H61.2049C61.1273 34.4017 61.0541 34.4168 60.9851 34.4468C60.917 34.4759 60.8576 34.5154 60.8067 34.5651C60.7567 34.6157 60.7171 34.6748 60.6878 34.7426C60.6585 34.8112 60.6438 34.884 60.6438 34.9612V35.2467C60.6438 35.3239 60.6585 35.3968 60.6878 35.4654C60.7171 35.5331 60.7567 35.5922 60.8067 35.6428C60.8576 35.6926 60.917 35.7324 60.9851 35.7624C61.0541 35.7916 61.1273 35.8062 61.2049 35.8062H61.5268C61.6044 35.8062 61.6777 35.7916 61.7466 35.7624C61.8147 35.7324 61.8746 35.6926 61.9263 35.6428C61.978 35.5922 62.0185 35.5331 62.0478 35.4654C62.0772 35.3968 62.0918 35.3239 62.0918 35.2467ZM62.0763 37.7405V37.6903C62.0763 37.6123 62.0616 37.5424 62.0323 37.4807C62.003 37.4189 61.963 37.3671 61.9121 37.3251C61.8612 37.283 61.8018 37.2509 61.7337 37.2286C61.6656 37.2054 61.5923 37.1939 61.5139 37.1939H61.3161C61.2377 37.1939 61.1644 37.2054 61.0963 37.2286C61.0282 37.2509 60.9687 37.283 60.9179 37.3251C60.867 37.3671 60.827 37.4189 60.7977 37.4807C60.7683 37.5424 60.7537 37.6123 60.7537 37.6903V37.7405C60.7537 37.8176 60.7683 37.8866 60.7977 37.9475C60.827 38.0084 60.867 38.0603 60.9179 38.1031C60.9687 38.146 61.0282 38.1786 61.0963 38.2009C61.1644 38.224 61.2377 38.2356 61.3161 38.2356H61.5139C61.5923 38.2356 61.6656 38.224 61.7337 38.2009C61.8018 38.1786 61.8612 38.146 61.9121 38.1031C61.963 38.0603 62.003 38.0084 62.0323 37.9475C62.0616 37.8866 62.0763 37.8176 62.0763 37.7405ZM63.7389 33.3279H63.2877V32.8134H63.7389V33.3279ZM63.7079 37.316H63.32V34.1008H63.7079V37.316ZM66.772 36.4338C66.772 36.5633 66.7474 36.6859 66.6983 36.8016C66.6483 36.9165 66.5802 37.0168 66.494 37.1026C66.4078 37.1883 66.307 37.2556 66.1915 37.3045C66.076 37.3542 65.9527 37.3791 65.8217 37.3791H65.5631C65.433 37.3791 65.3102 37.3542 65.1947 37.3045C65.0783 37.2556 64.977 37.1883 64.8909 37.1026C64.8047 37.0168 64.737 36.9165 64.6879 36.8016C64.6379 36.6859 64.6129 36.5633 64.6129 36.4338V34.9831C64.6129 34.8536 64.6379 34.731 64.6879 34.6152C64.737 34.5003 64.8047 34.4 64.8909 34.3143C64.977 34.2286 65.0783 34.1612 65.1947 34.1124C65.3102 34.0626 65.433 34.0378 65.5631 34.0378H65.8217C65.9527 34.0378 66.076 34.0626 66.1915 34.1124C66.307 34.1612 66.4078 34.2286 66.494 34.3143C66.5802 34.4 66.6483 34.5003 66.6983 34.6152C66.7474 34.731 66.772 34.8536 66.772 34.9831V36.4338ZM66.3841 36.4556V34.9612C66.3841 34.884 66.3695 34.8112 66.3402 34.7426C66.3108 34.6748 66.2708 34.6157 66.2199 34.5651C66.1691 34.5154 66.1096 34.4759 66.0415 34.4468C65.9734 34.4168 65.9002 34.4017 65.8217 34.4017H65.5631C65.4856 34.4017 65.4123 34.4168 65.3434 34.4468C65.2753 34.4759 65.2162 34.5154 65.1662 34.5651C65.1154 34.6157 65.0753 34.6748 65.046 34.7426C65.0167 34.8112 65.002 34.884 65.002 34.9612V36.4556C65.002 36.5328 65.0167 36.6057 65.046 36.6743C65.0753 36.742 65.1154 36.8012 65.1662 36.8518C65.2162 36.9015 65.2753 36.9409 65.3434 36.9701C65.4123 37.0001 65.4856 37.0151 65.5631 37.0151H65.8217C65.9002 37.0151 65.9734 37.0001 66.0415 36.9701C66.1096 36.9409 66.1691 36.9015 66.2199 36.8518C66.2708 36.8012 66.3108 36.742 66.3402 36.6743C66.3695 36.6057 66.3841 36.5328 66.3841 36.4556ZM69.7068 37.316H69.5775L69.3629 36.9894C69.275 37.1086 69.1646 37.2033 69.0319 37.2736C68.8992 37.3439 68.7539 37.3791 68.5962 37.3791H68.4979C68.3678 37.3791 68.245 37.3542 68.1295 37.3045C68.014 37.2556 67.9127 37.1883 67.8257 37.1026C67.7395 37.0168 67.6718 36.9165 67.6227 36.8016C67.5735 36.6859 67.549 36.5633 67.549 36.4338V34.1008H67.9368V36.4556C67.9368 36.5328 67.9515 36.6057 67.9808 36.6743C68.0101 36.742 68.0502 36.8012 68.101 36.8518C68.151 36.9015 68.2105 36.9409 68.2794 36.9701C68.3475 37.0001 68.4204 37.0151 68.4979 37.0151H68.7578C68.8354 37.0151 68.9082 37.0001 68.9763 36.9701C69.0453 36.9409 69.1047 36.9015 69.1547 36.8518C69.2056 36.8012 69.2456 36.742 69.275 36.6743C69.3043 36.6057 69.3189 36.5328 69.3189 36.4556V34.1008H69.7068V37.316ZM72.7062 36.4994C72.7062 36.6297 72.6799 36.7485 72.6273 36.8556C72.5748 36.9637 72.5032 37.0563 72.4127 37.1334C72.3222 37.2114 72.2175 37.2719 72.0986 37.3148C71.9796 37.3576 71.8546 37.3791 71.7236 37.3791H71.4651C71.3349 37.3791 71.2104 37.3542 71.0914 37.3045C70.9725 37.2556 70.8682 37.1883 70.7786 37.1026C70.6889 37.0168 70.6174 36.9165 70.5639 36.8016C70.5105 36.6859 70.4838 36.5633 70.4838 36.4338V36.3052L70.8716 36.2422V36.4556C70.8716 36.5328 70.888 36.6057 70.9208 36.6743C70.9535 36.742 70.997 36.8012 71.0513 36.8518C71.1065 36.9015 71.1699 36.9409 71.2414 36.9701C71.3129 37.0001 71.3875 37.0151 71.4651 37.0151H71.7236C71.8021 37.0151 71.8771 37.0035 71.9486 36.9804C72.0201 36.9572 72.0835 36.9242 72.1386 36.8813C72.1947 36.8385 72.2391 36.7866 72.2718 36.7257C72.3046 36.6649 72.3209 36.5958 72.3209 36.5187C72.3209 36.4038 72.2955 36.3095 72.2447 36.2357C72.1947 36.1628 72.1279 36.1015 72.0443 36.0518C71.9615 36.0029 71.8667 35.9622 71.7598 35.9296C71.6538 35.8971 71.5452 35.8645 71.434 35.8319C71.322 35.8002 71.213 35.7633 71.1069 35.7213C71.0009 35.6793 70.9061 35.6244 70.8225 35.5567C70.7398 35.4881 70.673 35.4028 70.6221 35.3007C70.5721 35.1978 70.5471 35.0701 70.5471 34.9175C70.5471 34.7871 70.5721 34.6684 70.6221 34.5612C70.673 34.4532 70.7415 34.3606 70.8277 34.2834C70.9139 34.2054 71.0143 34.145 71.1289 34.1021C71.2436 34.0592 71.3664 34.0378 71.4974 34.0378H71.7236C71.8546 34.0378 71.9779 34.0626 72.0934 34.1124C72.2089 34.1612 72.3097 34.2286 72.3959 34.3143C72.4821 34.4 72.5502 34.5003 72.6002 34.6152C72.6493 34.731 72.6739 34.8536 72.6739 34.9831V34.9959L72.286 35.0589V34.9612C72.286 34.884 72.2714 34.8112 72.2421 34.7426C72.2128 34.6748 72.1727 34.6157 72.1218 34.5651C72.071 34.5154 72.0115 34.4759 71.9434 34.4468C71.8753 34.4168 71.8021 34.4017 71.7236 34.4017H71.4974C71.419 34.4017 71.3457 34.4133 71.2776 34.4365C71.2086 34.4596 71.1492 34.4926 71.0992 34.5355C71.0483 34.5784 71.0083 34.6302 70.9789 34.6911C70.9496 34.752 70.935 34.821 70.935 34.8982C70.935 35.0096 70.9604 35.1001 71.0113 35.1695C71.0613 35.2399 71.1281 35.299 71.2117 35.347C71.2944 35.395 71.3888 35.4353 71.4948 35.4679C71.6017 35.5005 71.7103 35.5339 71.8206 35.5682C71.9309 35.6034 72.0391 35.6428 72.1451 35.6866C72.252 35.7303 72.3468 35.7869 72.4295 35.8563C72.5123 35.9249 72.5791 36.0111 72.6299 36.1148C72.6808 36.2186 72.7062 36.3468 72.7062 36.4994ZM77.0955 36.273C77.0955 36.4265 77.0666 36.5701 77.0089 36.7039C76.9511 36.8376 76.8718 36.9547 76.771 37.055C76.6693 37.1561 76.5512 37.2355 76.4167 37.2929C76.2823 37.3503 76.1383 37.3791 75.9849 37.3791H75.8556C75.7013 37.3791 75.5565 37.3503 75.4212 37.2929C75.285 37.2355 75.1665 37.1561 75.0657 37.055C74.9648 36.9547 74.8856 36.8376 74.8278 36.7039C74.7701 36.5701 74.7412 36.4265 74.7412 36.273V36.0943L75.1484 36.0287V36.273C75.1484 36.3742 75.1674 36.4681 75.2053 36.5547C75.2432 36.6413 75.2954 36.7176 75.3618 36.7836C75.4273 36.8496 75.504 36.9015 75.5919 36.9392C75.6789 36.9769 75.7729 36.9958 75.8737 36.9958H75.9655C76.0646 36.9958 76.1582 36.9769 76.2461 36.9392C76.3349 36.9015 76.412 36.8496 76.4775 36.7836C76.5421 36.7176 76.5934 36.6413 76.6313 36.5547C76.6693 36.4681 76.6882 36.3742 76.6882 36.273V32.8134H77.0955V36.273ZM80.0303 36.4338C80.0303 36.5633 80.0057 36.6859 79.9566 36.8016C79.9075 36.9165 79.8394 37.0168 79.7523 37.1026C79.6661 37.1883 79.5653 37.2556 79.4498 37.3045C79.3343 37.3542 79.211 37.3791 79.08 37.3791H78.8215C78.6913 37.3791 78.5685 37.3542 78.453 37.3045C78.3366 37.2556 78.2354 37.1883 78.1492 37.1026C78.063 37.0168 77.9953 36.9165 77.9462 36.8016C77.8962 36.6859 77.8712 36.5633 77.8712 36.4338V34.9831C77.8712 34.8536 77.8962 34.731 77.9462 34.6152C77.9953 34.5003 78.063 34.4 78.1492 34.3143C78.2354 34.2286 78.3366 34.1612 78.453 34.1124C78.5685 34.0626 78.6913 34.0378 78.8215 34.0378H79.08C79.211 34.0378 79.3343 34.0626 79.4498 34.1124C79.5653 34.1612 79.6661 34.2286 79.7523 34.3143C79.8394 34.4 79.9075 34.5003 79.9566 34.6152C80.0057 34.731 80.0303 34.8536 80.0303 34.9831V35.7393H78.2604V36.4556C78.2604 36.5328 78.275 36.6057 78.3043 36.6743C78.3336 36.742 78.3737 36.8012 78.4245 36.8518C78.4745 36.9015 78.534 36.9409 78.603 36.9701C78.6711 37.0001 78.7439 37.0151 78.8215 37.0151H79.08C79.1585 37.0151 79.2317 37.0001 79.2998 36.9701C79.3679 36.9409 79.4274 36.9015 79.4782 36.8518C79.5291 36.8012 79.5692 36.742 79.5985 36.6743C79.6278 36.6057 79.6424 36.5328 79.6424 36.4556V36.2422L80.0303 36.3052V36.4338ZM79.6424 35.4383V34.9612C79.6424 34.884 79.6278 34.8112 79.5985 34.7426C79.5692 34.6748 79.5291 34.6157 79.4782 34.5651C79.4274 34.5154 79.3679 34.4759 79.2998 34.4468C79.2317 34.4168 79.1585 34.4017 79.08 34.4017H78.8215C78.7439 34.4017 78.6711 34.4168 78.603 34.4468C78.534 34.4759 78.4745 34.5154 78.4245 34.5651C78.3737 34.6157 78.3336 34.6748 78.3043 34.7426C78.275 34.8112 78.2604 34.884 78.2604 34.9612V35.4383H79.6424ZM84.607 34.1008L83.5275 37.316H83.3167L82.5591 34.8918L82.5462 34.7258L82.5333 34.8918L81.7756 37.316H81.561L80.4815 34.1008H80.8758L81.6464 36.5315L81.6593 36.6974L81.6722 36.5315L82.4298 34.1008H82.6626L83.4176 36.5315L83.4292 36.6974L83.4421 36.5315L84.2127 34.1008H84.607ZM87.2199 36.4338C87.2199 36.5633 87.1953 36.6859 87.1462 36.8016C87.0971 36.9165 87.0294 37.0168 86.9432 37.1026C86.8562 37.1883 86.7549 37.2556 86.6394 37.3045C86.5239 37.3542 86.4007 37.3791 86.2696 37.3791H86.0111C85.8809 37.3791 85.7581 37.3542 85.6426 37.3045C85.5262 37.2556 85.425 37.1883 85.3388 37.1026C85.2526 37.0168 85.1849 36.9165 85.1358 36.8016C85.0858 36.6859 85.0608 36.5633 85.0608 36.4338V34.9831C85.0608 34.8536 85.0858 34.731 85.1358 34.6152C85.1849 34.5003 85.2526 34.4 85.3388 34.3143C85.425 34.2286 85.5262 34.1612 85.6426 34.1124C85.7581 34.0626 85.8809 34.0378 86.0111 34.0378H86.2696C86.4007 34.0378 86.5239 34.0626 86.6394 34.1124C86.7549 34.1612 86.8562 34.2286 86.9432 34.3143C87.0294 34.4 87.0971 34.5003 87.1462 34.6152C87.1953 34.731 87.2199 34.8536 87.2199 34.9831V35.7393H85.45V36.4556C85.45 36.5328 85.4646 36.6057 85.4939 36.6743C85.5232 36.742 85.5633 36.8012 85.6142 36.8518C85.6641 36.9015 85.7236 36.9409 85.7926 36.9701C85.8607 37.0001 85.9335 37.0151 86.0111 37.0151H86.2696C86.3481 37.0151 86.4213 37.0001 86.4894 36.9701C86.5584 36.9409 86.6179 36.9015 86.6678 36.8518C86.7187 36.8012 86.7588 36.742 86.7881 36.6743C86.8174 36.6057 86.832 36.5328 86.832 36.4556V36.2422L87.2199 36.3052V36.4338ZM86.832 35.4383V34.9612C86.832 34.884 86.8174 34.8112 86.7881 34.7426C86.7588 34.6748 86.7187 34.6157 86.6678 34.5651C86.6179 34.5154 86.5584 34.4759 86.4894 34.4468C86.4213 34.4168 86.3481 34.4017 86.2696 34.4017H86.0111C85.9335 34.4017 85.8607 34.4168 85.7926 34.4468C85.7236 34.4759 85.6641 34.5154 85.6142 34.5651C85.5633 34.6157 85.5232 34.6748 85.4939 34.7426C85.4646 34.8112 85.45 34.884 85.45 34.9612V35.4383H86.832ZM88.5141 37.316H88.1262V32.8134H88.5141V37.316ZM90.7585 34.4686H90.3693C90.2917 34.4686 90.2189 34.4832 90.1508 34.5124C90.0819 34.5415 90.0224 34.5814 89.9724 34.632C89.9215 34.6817 89.8815 34.7408 89.8522 34.8094C89.8229 34.8772 89.8082 34.9496 89.8082 35.0268V37.316H89.4203V34.1008H89.5496L89.7604 34.4275C89.8491 34.3083 89.9603 34.2135 90.0939 34.1432C90.2275 34.0729 90.3732 34.0378 90.5309 34.0378H90.7585V34.4686ZM93.4347 34.1008L91.7992 38.6034H91.4243L91.9983 37.0395L90.9498 34.1008H91.339L92.1806 36.538L92.1935 36.7039L92.2065 36.538L93.0455 34.1008H93.4347ZM97.4361 37.316L97.1362 36.2679H95.7037L95.4063 37.316H94.9835L96.3087 32.8134H96.5233L97.8563 37.316H97.4361ZM96.407 33.8063L95.8136 35.8808H97.0288L96.4328 33.8063L96.4199 33.6391L96.407 33.8063ZM100.465 37.316H100.336L100.121 36.9894C100.033 37.1086 99.9231 37.2033 99.7904 37.2736C99.6577 37.3439 99.5124 37.3791 99.3547 37.3791H99.2564C99.1263 37.3791 99.0035 37.3542 98.888 37.3045C98.7716 37.2556 98.6704 37.1883 98.5842 37.1026C98.498 37.0168 98.4303 36.9165 98.3812 36.8016C98.3321 36.6859 98.3075 36.5633 98.3075 36.4338V34.1008H98.6953V36.4556C98.6953 36.5328 98.71 36.6057 98.7393 36.6743C98.7686 36.742 98.8087 36.8012 98.8595 36.8518C98.9095 36.9015 98.969 36.9409 99.038 36.9701C99.106 37.0001 99.1789 37.0151 99.2564 37.0151H99.5163C99.5939 37.0151 99.6667 37.0001 99.7348 36.9701C99.8038 36.9409 99.8632 36.9015 99.9132 36.8518C99.9641 36.8012 100.004 36.742 100.033 36.6743C100.063 36.6057 100.077 36.5328 100.077 36.4556V34.1008H100.465V37.316ZM103.401 36.4338C103.401 36.5633 103.376 36.6859 103.326 36.8016C103.277 36.9165 103.21 37.0168 103.123 37.1026C103.037 37.1883 102.936 37.2556 102.82 37.3045C102.704 37.3542 102.581 37.3791 102.451 37.3791H102.193C102.062 37.3791 101.938 37.3542 101.823 37.3045C101.707 37.2556 101.606 37.1883 101.52 37.1026C101.434 37.0168 101.366 36.9165 101.316 36.8016C101.267 36.6859 101.242 36.5633 101.242 36.4338V34.9831C101.242 34.8536 101.267 34.731 101.316 34.6152C101.366 34.5003 101.434 34.4 101.52 34.3143C101.606 34.2286 101.707 34.1612 101.823 34.1124C101.938 34.0626 102.062 34.0378 102.193 34.0378H102.451C102.581 34.0378 102.704 34.0626 102.82 34.1124C102.936 34.1612 103.037 34.2286 103.123 34.3143C103.21 34.4 103.277 34.5003 103.326 34.6152C103.376 34.731 103.401 34.8536 103.401 34.9831V35.1117L103.012 35.1747V34.9612C103.012 34.884 102.998 34.8112 102.968 34.7426C102.939 34.6748 102.899 34.6157 102.848 34.5651C102.798 34.5154 102.739 34.4759 102.671 34.4468C102.602 34.4168 102.529 34.4017 102.451 34.4017H102.193C102.114 34.4017 102.041 34.4168 101.973 34.4468C101.905 34.4759 101.845 34.5154 101.794 34.5651C101.743 34.6157 101.703 34.6748 101.674 34.7426C101.645 34.8112 101.63 34.884 101.63 34.9612V36.4556C101.63 36.5328 101.645 36.6057 101.674 36.6743C101.703 36.742 101.743 36.8012 101.794 36.8518C101.845 36.9015 101.905 36.9409 101.973 36.9701C102.041 37.0001 102.114 37.0151 102.193 37.0151H102.451C102.529 37.0151 102.602 37.0001 102.671 36.9701C102.739 36.9409 102.798 36.9015 102.848 36.8518C102.899 36.8012 102.939 36.742 102.968 36.6743C102.998 36.6057 103.012 36.5328 103.012 36.4556V36.2422L103.401 36.3052V36.4338ZM105.708 37.316H105.355C105.237 37.316 105.126 37.2942 105.021 37.2505C104.917 37.2059 104.827 37.145 104.75 37.0678C104.673 36.9907 104.612 36.9006 104.568 36.7978C104.522 36.6957 104.499 36.586 104.499 36.4685V34.4686H103.919V34.1008H104.499V33.3279L104.887 33.2661V34.1008H105.708V34.4686H104.887V36.4865C104.887 36.5517 104.899 36.6121 104.923 36.6679C104.947 36.7236 104.98 36.772 105.023 36.8132C105.065 36.8552 105.114 36.8882 105.171 36.9122C105.228 36.9362 105.289 36.9482 105.355 36.9482H105.708V37.316ZM106.97 33.3279H106.518V32.8134H106.97V33.3279ZM106.939 37.316H106.551V34.1008H106.939V37.316ZM110.003 36.4338C110.003 36.5633 109.978 36.6859 109.929 36.8016C109.88 36.9165 109.812 37.0168 109.726 37.1026C109.639 37.1883 109.538 37.2556 109.422 37.3045C109.307 37.3542 109.183 37.3791 109.052 37.3791H108.794C108.664 37.3791 108.541 37.3542 108.425 37.3045C108.309 37.2556 108.208 37.1883 108.122 37.1026C108.035 37.0168 107.968 36.9165 107.919 36.8016C107.869 36.6859 107.844 36.5633 107.844 36.4338V34.9831C107.844 34.8536 107.869 34.731 107.919 34.6152C107.968 34.5003 108.035 34.4 108.122 34.3143C108.208 34.2286 108.309 34.1612 108.425 34.1124C108.541 34.0626 108.664 34.0378 108.794 34.0378H109.052C109.183 34.0378 109.307 34.0626 109.422 34.1124C109.538 34.1612 109.639 34.2286 109.726 34.3143C109.812 34.4 109.88 34.5003 109.929 34.6152C109.978 34.731 110.003 34.8536 110.003 34.9831V36.4338ZM109.615 36.4556V34.9612C109.615 34.884 109.6 34.8112 109.571 34.7426C109.542 34.6748 109.502 34.6157 109.451 34.5651C109.401 34.5154 109.341 34.4759 109.272 34.4468C109.204 34.4168 109.131 34.4017 109.052 34.4017H108.794C108.716 34.4017 108.643 34.4168 108.575 34.4468C108.506 34.4759 108.447 34.5154 108.397 34.5651C108.346 34.6157 108.306 34.6748 108.277 34.7426C108.247 34.8112 108.233 34.884 108.233 34.9612V36.4556C108.233 36.5328 108.247 36.6057 108.277 36.6743C108.306 36.742 108.346 36.8012 108.397 36.8518C108.447 36.9015 108.506 36.9409 108.575 36.9701C108.643 37.0001 108.716 37.0151 108.794 37.0151H109.052C109.131 37.0151 109.204 37.0001 109.272 36.9701C109.341 36.9409 109.401 36.9015 109.451 36.8518C109.502 36.8012 109.542 36.742 109.571 36.6743C109.6 36.6057 109.615 36.5328 109.615 36.4556ZM112.939 37.316H112.55V34.9612C112.55 34.884 112.535 34.8112 112.506 34.7426C112.476 34.6748 112.436 34.6157 112.385 34.5651C112.335 34.5154 112.276 34.4759 112.207 34.4468C112.139 34.4168 112.066 34.4017 111.989 34.4017H111.73C111.652 34.4017 111.578 34.4168 111.51 34.4468C111.442 34.4759 111.383 34.5154 111.332 34.5651C111.281 34.6157 111.241 34.6748 111.212 34.7426C111.182 34.8112 111.168 34.884 111.168 34.9612V37.316H110.78V34.1008H110.909L111.12 34.4275C111.209 34.3083 111.32 34.2135 111.453 34.1432C111.587 34.0729 111.733 34.0378 111.89 34.0378H111.989C112.119 34.0378 112.242 34.0626 112.357 34.1124C112.473 34.1612 112.575 34.2286 112.661 34.3143C112.747 34.4 112.815 34.5003 112.864 34.6152C112.914 34.731 112.939 34.8536 112.939 34.9831V37.316ZM117.878 37.316H117.47V35.2596H115.738V37.316H115.331V32.8134H115.738V34.8737H117.47V32.8134H117.878V37.316ZM120.878 36.4338C120.878 36.5633 120.854 36.6859 120.805 36.8016C120.755 36.9165 120.688 37.0168 120.602 37.1026C120.515 37.1883 120.414 37.2556 120.298 37.3045C120.182 37.3542 120.059 37.3791 119.929 37.3791H119.669C119.539 37.3791 119.416 37.3542 119.301 37.3045C119.185 37.2556 119.083 37.1883 118.997 37.1026C118.911 37.0168 118.843 36.9165 118.794 36.8016C118.745 36.6859 118.721 36.5633 118.721 36.4338V34.9831C118.721 34.8536 118.745 34.731 118.794 34.6152C118.843 34.5003 118.911 34.4 118.997 34.3143C119.083 34.2286 119.185 34.1612 119.301 34.1124C119.416 34.0626 119.539 34.0378 119.669 34.0378H119.929C120.059 34.0378 120.182 34.0626 120.298 34.1124C120.414 34.1612 120.515 34.2286 120.602 34.3143C120.688 34.4 120.755 34.5003 120.805 34.6152C120.854 34.731 120.878 34.8536 120.878 34.9831V36.4338ZM120.49 36.4556V34.9612C120.49 34.884 120.476 34.8112 120.446 34.7426C120.417 34.6748 120.377 34.6157 120.326 34.5651C120.276 34.5154 120.217 34.4759 120.148 34.4468C120.08 34.4168 120.007 34.4017 119.929 34.4017H119.669C119.592 34.4017 119.519 34.4168 119.451 34.4468C119.382 34.4759 119.323 34.5154 119.273 34.5651C119.222 34.6157 119.182 34.6748 119.152 34.7426C119.123 34.8112 119.108 34.884 119.108 34.9612V36.4556C119.108 36.5328 119.123 36.6057 119.152 36.6743C119.182 36.742 119.222 36.8012 119.273 36.8518C119.323 36.9015 119.382 36.9409 119.451 36.9701C119.519 37.0001 119.592 37.0151 119.669 37.0151H119.929C120.007 37.0151 120.08 37.0001 120.148 36.9701C120.217 36.9409 120.276 36.9015 120.326 36.8518C120.377 36.8012 120.417 36.742 120.446 36.6743C120.476 36.6057 120.49 36.5328 120.49 36.4556ZM123.814 37.316H123.685L123.47 36.9894C123.382 37.1086 123.271 37.2033 123.138 37.2736C123.005 37.3439 122.86 37.3791 122.703 37.3791H122.606C122.475 37.3791 122.351 37.3542 122.236 37.3045C122.12 37.2556 122.019 37.1883 121.933 37.1026C121.847 37.0168 121.779 36.9165 121.729 36.8016C121.68 36.6859 121.655 36.5633 121.655 36.4338V34.1008H122.043V36.4556C122.043 36.5328 122.058 36.6057 122.087 36.6743C122.116 36.742 122.157 36.8012 122.207 36.8518C122.258 36.9015 122.318 36.9409 122.386 36.9701C122.454 37.0001 122.527 37.0151 122.606 37.0151H122.864C122.942 37.0151 123.015 37.0001 123.084 36.9701C123.152 36.9409 123.211 36.9015 123.261 36.8518C123.312 36.8012 123.352 36.742 123.381 36.6743C123.411 36.6057 123.425 36.5328 123.425 36.4556V34.1008H123.814V37.316ZM126.813 36.4994C126.813 36.6297 126.786 36.7485 126.734 36.8556C126.681 36.9637 126.61 37.0563 126.519 37.1334C126.429 37.2114 126.324 37.2719 126.205 37.3148C126.086 37.3576 125.961 37.3791 125.831 37.3791H125.571C125.441 37.3791 125.317 37.3542 125.198 37.3045C125.079 37.2556 124.975 37.1883 124.885 37.1026C124.796 37.0168 124.725 36.9165 124.67 36.8016C124.617 36.6859 124.59 36.5633 124.59 36.4338V36.3052L124.978 36.2422V36.4556C124.978 36.5328 124.994 36.6057 125.027 36.6743C125.06 36.742 125.103 36.8012 125.158 36.8518C125.213 36.9015 125.276 36.9409 125.348 36.9701C125.419 37.0001 125.494 37.0151 125.571 37.0151H125.831C125.909 37.0151 125.983 37.0035 126.055 36.9804C126.126 36.9572 126.19 36.9242 126.246 36.8813C126.301 36.8385 126.345 36.7866 126.378 36.7257C126.411 36.6649 126.427 36.5958 126.427 36.5187C126.427 36.4038 126.402 36.3095 126.351 36.2357C126.301 36.1628 126.234 36.1015 126.151 36.0518C126.068 36.0029 125.973 35.9622 125.867 35.9296C125.761 35.8971 125.652 35.8645 125.54 35.8319C125.429 35.8002 125.32 35.7633 125.213 35.7213C125.107 35.6793 125.012 35.6244 124.929 35.5567C124.846 35.4881 124.779 35.4028 124.728 35.3007C124.678 35.1978 124.653 35.0701 124.653 34.9175C124.653 34.7871 124.678 34.6684 124.728 34.5612C124.779 34.4532 124.848 34.3606 124.934 34.2834C125.02 34.2054 125.121 34.145 125.235 34.1021C125.35 34.0592 125.473 34.0378 125.604 34.0378H125.831C125.961 34.0378 126.084 34.0626 126.2 34.1124C126.315 34.1612 126.416 34.2286 126.504 34.3143C126.59 34.4 126.657 34.5003 126.707 34.6152C126.756 34.731 126.78 34.8536 126.78 34.9831V34.9959L126.392 35.0589V34.9612C126.392 34.884 126.378 34.8112 126.348 34.7426C126.319 34.6748 126.279 34.6157 126.228 34.5651C126.178 34.5154 126.119 34.4759 126.05 34.4468C125.982 34.4168 125.909 34.4017 125.831 34.4017H125.604C125.525 34.4017 125.452 34.4133 125.384 34.4365C125.316 34.4596 125.256 34.4926 125.206 34.5355C125.156 34.5784 125.115 34.6302 125.085 34.6911C125.056 34.752 125.041 34.821 125.041 34.8982C125.041 35.0096 125.067 35.1001 125.118 35.1695C125.168 35.2399 125.234 35.299 125.318 35.347C125.401 35.395 125.496 35.4353 125.602 35.4679C125.708 35.5005 125.817 35.5339 125.927 35.5682C126.037 35.6034 126.145 35.6428 126.251 35.6866C126.358 35.7303 126.453 35.7869 126.536 35.8563C126.619 35.9249 126.686 36.0111 126.736 36.1148C126.787 36.2186 126.813 36.3468 126.813 36.4994ZM129.716 36.4338C129.716 36.5633 129.691 36.6859 129.641 36.8016C129.592 36.9165 129.525 37.0168 129.438 37.1026C129.352 37.1883 129.251 37.2556 129.135 37.3045C129.019 37.3542 128.896 37.3791 128.766 37.3791H128.507C128.376 37.3791 128.253 37.3542 128.138 37.3045C128.022 37.2556 127.921 37.1883 127.835 37.1026C127.748 37.0168 127.68 36.9165 127.631 36.8016C127.582 36.6859 127.557 36.5633 127.557 36.4338V34.9831C127.557 34.8536 127.582 34.731 127.631 34.6152C127.68 34.5003 127.748 34.4 127.835 34.3143C127.921 34.2286 128.022 34.1612 128.138 34.1124C128.253 34.0626 128.376 34.0378 128.507 34.0378H128.766C128.896 34.0378 129.019 34.0626 129.135 34.1124C129.251 34.1612 129.352 34.2286 129.438 34.3143C129.525 34.4 129.592 34.5003 129.641 34.6152C129.691 34.731 129.716 34.8536 129.716 34.9831V35.7393H127.945V36.4556C127.945 36.5328 127.96 36.6057 127.989 36.6743C128.018 36.742 128.058 36.8012 128.109 36.8518C128.16 36.9015 128.22 36.9409 128.288 36.9701C128.356 37.0001 128.429 37.0151 128.507 37.0151H128.766C128.844 37.0151 128.916 37.0001 128.985 36.9701C129.053 36.9409 129.113 36.9015 129.163 36.8518C129.214 36.8012 129.254 36.742 129.283 36.6743C129.312 36.6057 129.327 36.5328 129.327 36.4556V36.2422L129.716 36.3052V36.4338ZM129.327 35.4383V34.9612C129.327 34.884 129.312 34.8112 129.283 34.7426C129.254 34.6748 129.214 34.6157 129.163 34.5651C129.113 34.5154 129.053 34.4759 128.985 34.4468C128.916 34.4168 128.844 34.4017 128.766 34.4017H128.507C128.429 34.4017 128.356 34.4168 128.288 34.4468C128.22 34.4759 128.16 34.5154 128.109 34.5651C128.058 34.6157 128.018 34.6748 127.989 34.7426C127.96 34.8112 127.945 34.884 127.945 34.9612V35.4383H129.327Z" fill="#424D51"/>
</g>
</g>
</g>
</g>
<g clip-path="url(#clip9_2551_65)">
<g clip-path="url(#clip10_2551_65)">
<path d="M7.84813 6.09918C7.86291 6.18937 7.83433 6.27957 7.87178 6.36683C7.8915 6.41095 7.93486 6.42958 7.9595 6.47664C7.97133 6.4982 7.96739 6.5237 7.98118 6.54232L17.6516 21.8947C17.8783 22.2555 18.2755 22.4692 18.6993 22.4692C19.1231 22.4692 19.5183 22.2555 19.746 21.8947L29.4213 6.54232C29.448 6.50409 29.443 6.45899 29.4637 6.41879C29.4726 6.39722 29.4972 6.38644 29.5071 6.36683C29.5248 6.32369 29.5071 6.27957 29.5189 6.23643C29.5721 6.06584 29.5879 5.90407 29.5682 5.7276C29.5593 5.67073 29.5436 5.62171 29.5248 5.56289C29.5012 5.47367 29.5041 5.37857 29.4598 5.29621C29.4125 5.21484 29.3307 5.1717 29.2745 5.10111C29.2518 5.0766 29.2518 5.04425 29.2252 5.02268L24.391 0.348048C24.1587 0.125619 23.8491 0.000941972 23.5266 0H13.8542C13.5339 0 13.2234 0.126474 12.9928 0.348048L8.15661 5.02366C8.11128 5.06385 8.10537 5.12562 8.07481 5.1717C8.03933 5.21974 7.9802 5.24425 7.95162 5.29621C7.92106 5.3521 7.92993 5.4119 7.90825 5.46975C7.86146 5.57908 7.83315 5.69536 7.82448 5.81387C7.81364 5.91388 7.83039 6.00211 7.84813 6.09918ZM17.4516 7.13253V16.9504L17.1904 16.5347L14.6417 7.13253H17.4516ZM19.9234 7.13253H22.9422L20.4171 16.2102L19.9253 16.9877V7.13253H19.9234ZM25.5037 7.13253H26.1394L25.004 8.93454L25.5037 7.13253ZM12.0841 7.13253L12.7011 9.40808L11.2681 7.13253H12.0841ZM25.3046 4.66286H19.9234V2.45594H23.023L25.3046 4.66286ZM14.3529 2.45594H17.4525V4.66286H12.0713L14.3529 2.45594Z" fill="#111111"/>
<path d="M29.6618 15.2308C29.4106 15.0217 29.0865 14.9199 28.7602 14.9475C28.4338 14.975 28.1316 15.1297 27.9194 15.3778C27.8144 15.5011 27.7349 15.6437 27.6853 15.7975C27.6358 15.9514 27.6173 16.1134 27.6307 16.2744C27.6442 16.4354 27.6894 16.5921 27.7638 16.7357C27.8381 16.8793 27.9402 17.0069 28.0642 17.1112C31.2723 19.8074 33.1094 23.7741 33.1094 27.9889C33.1094 35.9029 26.6391 42.3393 18.6855 42.3393C10.7319 42.3393 4.25869 35.9039 4.25869 27.9889C4.25869 23.6898 6.17465 19.6554 9.51278 16.923C9.7662 16.716 9.92658 16.4174 9.95865 16.0927C9.99072 15.7681 9.89185 15.4441 9.68378 15.1921C9.47571 14.94 9.1755 14.7804 8.84918 14.7485C8.52286 14.7166 8.19717 14.815 7.94375 15.0219C6.01618 16.5943 4.46396 18.5732 3.39933 20.8154C2.3347 23.0577 1.78428 25.5072 1.78786 27.987C1.78786 37.251 9.36692 44.7943 18.6855 44.7943C28.0021 44.7943 35.5802 37.2559 35.5802 27.987C35.5812 23.0496 33.4238 18.3985 29.6618 15.2308Z" fill="#111111"/>
<path d="M11.7747 18.5721C11.6666 18.4517 11.5357 18.3537 11.3895 18.2836C11.2433 18.2136 11.0847 18.1729 10.9227 18.1639C10.7606 18.1549 10.5984 18.1777 10.4453 18.2311C10.2922 18.2845 10.1511 18.3674 10.0302 18.475C8.68786 19.675 7.61444 21.1427 6.8797 22.7825C6.14497 24.4223 5.76539 26.1976 5.76563 27.9929C5.76563 35.0803 11.5716 40.8452 18.7062 40.8452C25.8309 40.8452 31.6261 35.0793 31.6261 27.9929C31.6261 24.3761 30.1517 21.028 27.4709 18.5642C27.2302 18.3428 26.9109 18.2256 26.5833 18.2384C26.2556 18.2511 25.9466 18.3929 25.724 18.6323C25.5014 18.8718 25.3836 19.1895 25.3964 19.5154C25.4093 19.8413 25.5517 20.1487 25.7925 20.3701C27.9578 22.3653 29.1523 25.0703 29.1523 27.9929C29.1523 33.7283 24.4659 38.3873 18.7023 38.3873C12.9288 38.3873 8.23054 33.7283 8.23054 27.9929C8.23054 25.0605 9.48518 22.2594 11.6741 20.3123C11.7957 20.2047 11.8948 20.0743 11.9657 19.9285C12.0366 19.7828 12.0779 19.6246 12.0872 19.4629C12.0965 19.3013 12.0737 19.1394 12.0201 18.9865C11.9665 18.8337 11.8831 18.6928 11.7747 18.5721Z" fill="#111111"/>
</g>
</g>
</g>
</g>
</g>
<defs>
<clipPath id="clip0_2551_65">
<rect width="205" height="45" fill="white"/>
</clipPath>
<clipPath id="clip1_2551_65">
<rect width="203.318" height="44.7943" fill="white" transform="translate(1.78784)"/>
</clipPath>
<clipPath id="clip2_2551_65">
<rect width="203.318" height="44.7943" fill="white" transform="translate(1.78784)"/>
</clipPath>
<clipPath id="clip3_2551_65">
<rect width="164.415" height="32.4126" fill="white" transform="translate(40.6917 6.1908)"/>
</clipPath>
<clipPath id="clip4_2551_65">
<rect width="164.415" height="32.4126" fill="white" transform="translate(40.6917 6.1908)"/>
</clipPath>
<clipPath id="clip5_2551_65">
<rect width="164.415" height="21.538" fill="white" transform="translate(40.6917 6.1908)"/>
</clipPath>
<clipPath id="clip6_2551_65">
<rect width="164.415" height="21.538" fill="white" transform="translate(40.6917 6.1908)"/>
</clipPath>
<clipPath id="clip7_2551_65">
<rect width="89.0305" height="5.79002" fill="white" transform="translate(40.6917 32.8134)"/>
</clipPath>
<clipPath id="clip8_2551_65">
<rect width="89.0305" height="5.79002" fill="white" transform="translate(40.6917 32.8134)"/>
</clipPath>
<clipPath id="clip9_2551_65">
<rect width="33.7924" height="44.7943" fill="white" transform="translate(1.78784)"/>
</clipPath>
<clipPath id="clip10_2551_65">
<rect width="33.7924" height="44.7943" fill="white" transform="translate(1.78784)"/>
</clipPath>
</defs>
</svg>
