<svg width="402" height="88" viewBox="0 0 402 88" fill="none" xmlns="http://www.w3.org/2000/svg">
<g clip-path="url(#clip0_2627_92)">
<g clip-path="url(#clip1_2627_92)">
<g clip-path="url(#clip2_2627_92)">
<g clip-path="url(#clip3_2627_92)">
<g clip-path="url(#clip4_2627_92)">
<g clip-path="url(#clip5_2627_92)">
<g clip-path="url(#clip6_2627_92)">
<path d="M87.5784 53.4418C86.1602 53.4418 84.759 53.2227 83.3747 52.7846C81.9904 52.3381 80.7973 51.5884 79.7952 50.5353L81.2474 45.2783C81.9268 46.4157 82.8057 47.3129 83.8842 47.97C84.9628 48.6271 86.1772 48.9557 87.5275 48.9557C89.0901 48.9557 90.4488 48.4165 91.6038 47.3382C92.7503 46.2598 93.3235 44.3727 93.3235 41.6768V13.4207H98.368V42.0686C98.368 44.6718 97.8669 46.8158 96.8648 48.5007C95.8627 50.1857 94.5422 51.4283 92.9031 52.2286C91.2641 53.0374 89.4892 53.4418 87.5784 53.4418ZM128.355 52.911H108.712V13.4207H128.355V17.8942H113.756V26.323H125.259V30.7965H113.756V48.4376H128.355V52.911ZM156.125 28.5976L146.889 54.2253L131.539 13.4207H136.66L145.692 37.1149C146.014 37.9321 146.278 38.7156 146.482 39.4654C146.694 40.2067 146.915 41.0913 147.144 42.1191C147.382 41.0913 147.611 40.2067 147.832 39.4654C148.053 38.7156 148.312 37.9321 148.609 37.1149L157.717 12.1065L166.787 37.1149C167.05 37.8478 167.309 38.585 167.564 39.3264C167.81 40.0762 168.039 41.0071 168.252 42.1191C168.481 41.0071 168.715 40.0762 168.952 39.3264C169.19 38.585 169.458 37.8478 169.755 37.1149L178.774 13.4207H183.551L168.252 54.2253L159.042 28.5976C158.778 27.8394 158.528 27.1023 158.29 26.3862C158.061 25.6701 157.827 24.756 157.59 23.644C157.352 24.756 157.114 25.6701 156.876 26.3862C156.638 27.1023 156.388 27.8394 156.125 28.5976ZM209.295 52.911H189.652V13.4207H209.295V17.8942H194.697V26.323H206.2V30.7965H194.697V48.4376H209.295V52.911ZM236.352 52.911H217.512V13.4207H222.556V48.4376H236.352V52.911ZM246.798 53.4418C245.379 53.4418 243.978 53.2227 242.594 52.7846C241.201 52.3381 240.004 51.5884 239.002 50.5353L240.467 45.2783C241.146 46.4157 242.025 47.3129 243.103 47.97C244.174 48.6271 245.388 48.9557 246.747 48.9557C248.309 48.9557 249.668 48.4165 250.823 47.3382C251.97 46.2598 252.543 44.3727 252.543 41.6768V13.4207H257.587V42.0686C257.587 44.6718 257.086 46.8158 256.084 48.5007C255.082 50.1857 253.761 51.4283 252.122 52.2286C250.483 53.0374 248.708 53.4418 246.798 53.4418ZM285.803 53.7071C282.941 53.7071 280.249 53.1722 277.727 52.1023C275.205 51.0323 272.992 49.5622 271.09 47.692C269.188 45.8217 267.702 43.6398 266.632 41.1461C265.553 38.6608 265.014 35.9986 265.014 33.1596C265.014 30.3289 265.553 27.6709 266.632 25.1857C267.702 22.692 269.188 20.51 271.09 18.6398C272.992 16.7695 275.205 15.2994 277.727 14.2295C280.249 13.1596 282.941 12.6246 285.803 12.6246C288.691 12.6246 291.387 13.1596 293.892 14.2295C296.397 15.2994 298.601 16.7695 300.503 18.6398C302.406 20.51 303.896 22.692 304.975 25.1857C306.053 27.6709 306.592 30.3289 306.592 33.1596C306.592 35.9986 306.053 38.6608 304.975 41.1461C303.896 43.6398 302.406 45.8217 300.503 47.692C298.601 49.5622 296.397 51.0323 293.892 52.1023C291.387 53.1722 288.691 53.7071 285.803 53.7071ZM285.803 48.9557C288.725 48.9557 291.361 48.248 293.714 46.8327C296.075 45.4173 297.943 43.5092 299.319 41.1082C300.686 38.7072 301.37 36.0576 301.37 33.1596C301.37 30.2362 300.686 27.5825 299.319 25.1983C297.943 22.8142 296.075 20.9144 293.714 19.4991C291.361 18.0753 288.725 17.3635 285.803 17.3635C282.882 17.3635 280.249 18.0753 277.905 19.4991C275.561 20.9144 273.697 22.8142 272.313 25.1983C270.929 27.5825 270.237 30.2362 270.237 33.1596C270.237 36.0576 270.929 38.7072 272.313 41.1082C273.697 43.5092 275.561 45.4173 277.905 46.8327C280.249 48.248 282.882 48.9557 285.803 48.9557ZM326.936 53.4418C324.431 53.4418 322.201 52.89 320.248 51.7863C318.303 50.6911 316.779 49.1705 315.675 47.2244C314.571 45.2783 314.019 43.0332 314.019 40.489V13.4207H319.064V40.312C319.064 42.9152 319.815 45.0087 321.318 46.5926C322.821 48.168 324.724 48.9557 327.025 48.9557C329.293 48.9557 331.186 48.1764 332.707 46.6178C334.227 45.0509 334.987 43.0079 334.987 40.489V13.4207H339.853V40.312C339.853 42.89 339.297 45.1646 338.184 47.136C337.08 49.1157 335.564 50.6617 333.636 51.7737C331.7 52.8857 329.467 53.4418 326.936 53.4418ZM358.77 53.4418C356.417 53.4418 354.29 52.9742 352.388 52.0391C350.485 51.0955 348.974 49.954 347.853 48.6145L349.305 42.5614C350.137 44.1958 351.377 45.6701 353.025 46.9843C354.672 48.2985 356.646 48.9557 358.948 48.9557C361.046 48.9557 362.778 48.2985 364.145 46.9843C365.521 45.6701 366.209 44.0483 366.209 42.1191C366.209 40.7122 365.869 39.558 365.19 38.6566C364.51 37.7468 363.742 37.0264 362.884 36.4957C362.035 35.9734 361.36 35.5943 360.859 35.3584L355.993 32.9068C355.22 32.494 354.269 31.9211 353.139 31.1882C352.001 30.4553 351.003 29.4485 350.146 28.168C349.296 26.879 348.872 25.211 348.872 23.1638C348.872 21.1756 349.335 19.4064 350.26 17.8563C351.186 16.3062 352.485 15.0888 354.158 14.2042C355.823 13.3281 357.729 12.89 359.878 12.89C362.001 12.89 363.874 13.2649 365.496 14.0147C367.118 14.756 368.387 15.5227 369.304 16.3146L367.839 22.3677C367.101 21.1377 366.009 19.9835 364.566 18.9052C363.122 17.8268 361.487 17.2876 359.661 17.2876C357.895 17.2876 356.481 17.8057 355.419 18.842C354.358 19.8782 353.827 21.1587 353.827 22.6836C353.827 23.8546 354.099 24.8192 354.642 25.5774C355.186 26.3356 355.806 26.9338 356.502 27.3719C357.19 27.8099 357.755 28.1469 358.196 28.3828L363.152 30.8344C363.746 31.1292 364.493 31.542 365.394 32.0728C366.285 32.5951 367.177 33.2901 368.069 34.1579C368.952 35.0172 369.687 36.0703 370.272 37.3171C370.867 38.5555 371.164 40.0551 371.164 41.8158C371.164 44.0652 370.625 46.066 369.546 47.8183C368.468 49.5791 366.999 50.9565 365.139 51.9506C363.288 52.9447 361.164 53.4418 358.77 53.4418ZM386.552 17.8942H375.928V13.4207H402.208V17.8942H391.597V52.911H386.552V17.8942Z" fill="#111111"/>
</g>
</g>
<g clip-path="url(#clip7_2627_92)">
<g clip-path="url(#clip8_2627_92)">
<path d="M84.6158 72.9737L84.0276 70.924H81.216L80.6354 72.9737H79.8064L82.4051 64.1686H82.8259L85.4398 72.9737H84.6158ZM82.5977 66.1102L81.434 70.1669H83.8172L82.6459 66.1102L82.6231 65.7832L82.5977 66.1102ZM94.4856 67.4281C94.4856 67.7282 94.429 68.009 94.3158 68.2706C94.2025 68.5322 94.047 68.761 93.8493 68.9572C93.6515 69.1551 93.4191 69.3102 93.1521 69.4225C92.8867 69.5348 92.6036 69.591 92.3028 69.591H90.2898V72.9737H89.4911V64.1686H92.3028C92.6036 64.1686 92.8867 64.2247 93.1521 64.3371C93.4191 64.4494 93.6515 64.6037 93.8493 64.7999C94.047 64.9977 94.2025 65.2282 94.3158 65.4915C94.429 65.7564 94.4856 66.0381 94.4856 66.3365V67.4281ZM93.687 67.4281V66.3365C93.687 66.1404 93.6498 65.9568 93.5755 65.7857C93.5028 65.6164 93.4014 65.4672 93.2712 65.3381C93.1411 65.209 92.9898 65.1075 92.8174 65.0338C92.6467 64.96 92.4625 64.9231 92.2647 64.9231H90.2898V68.834H92.2647C92.4625 68.834 92.6467 68.7979 92.8174 68.7258C92.9898 68.6521 93.1411 68.5515 93.2712 68.424C93.4014 68.2966 93.5028 68.1482 93.5755 67.9789C93.6498 67.8095 93.687 67.6259 93.687 67.4281ZM98.3798 67.4054H97.6167C97.4646 67.4054 97.3218 67.4339 97.1882 67.4909C97.053 67.548 96.9364 67.6259 96.8384 67.7248C96.7386 67.8221 96.66 67.9378 96.6026 68.0719C96.5451 68.2044 96.5164 68.3461 96.5164 68.497V72.9737H95.7558V66.6861H96.0093L96.4226 67.325C96.5967 67.0919 96.8147 66.9066 97.0767 66.7691C97.3387 66.6316 97.6243 66.5629 97.9336 66.5629H98.3798V67.4054ZM103.628 71.2484C103.628 71.5016 103.579 71.7414 103.481 71.9677C103.384 72.1924 103.252 72.3886 103.083 72.5562C102.914 72.7239 102.716 72.8555 102.489 72.9511C102.261 73.0483 102.02 73.097 101.764 73.097H101.257C101 73.097 100.759 73.0483 100.532 72.9511C100.306 72.8555 100.108 72.7239 99.939 72.5562C99.77 72.3886 99.6365 72.1924 99.5384 71.9677C99.4421 71.7414 99.3939 71.5016 99.3939 71.2484V68.4114C99.3939 68.1583 99.4421 67.9185 99.5384 67.6921C99.6365 67.4675 99.77 67.2713 99.939 67.1036C100.108 66.936 100.306 66.8043 100.532 66.7088C100.759 66.6115 101 66.5629 101.257 66.5629H101.764C102.02 66.5629 102.261 66.6115 102.489 66.7088C102.716 66.8043 102.914 66.936 103.083 67.1036C103.252 67.2713 103.384 67.4675 103.481 67.6921C103.579 67.9185 103.628 68.1583 103.628 68.4114V69.8903H100.154V71.2912C100.154 71.4421 100.183 71.5846 100.241 71.7187C100.3 71.8512 100.378 71.9669 100.476 72.0658C100.576 72.163 100.693 72.2402 100.826 72.2972C100.96 72.3559 101.104 72.3852 101.257 72.3852H101.764C101.917 72.3852 102.06 72.3559 102.195 72.2972C102.329 72.2402 102.446 72.163 102.545 72.0658C102.643 71.9669 102.721 71.8512 102.779 71.7187C102.838 71.5846 102.867 71.4421 102.867 71.2912V70.8737L103.628 70.9969V71.2484ZM102.867 69.3018V68.3687C102.867 68.2178 102.838 68.0753 102.779 67.9411C102.721 67.8087 102.643 67.693 102.545 67.5941C102.446 67.4968 102.329 67.4197 102.195 67.3627C102.06 67.304 101.917 67.2747 101.764 67.2747H101.257C101.104 67.2747 100.96 67.304 100.826 67.3627C100.693 67.4197 100.576 67.4968 100.476 67.5941C100.378 67.693 100.3 67.8087 100.241 67.9411C100.183 68.0753 100.154 68.2178 100.154 68.3687V69.3018H102.867ZM109.507 71.3767C109.507 71.6315 109.456 71.8638 109.352 72.0733C109.249 72.2846 109.109 72.4657 108.932 72.6166C108.754 72.7692 108.549 72.8874 108.316 72.9712C108.082 73.055 107.838 73.097 107.583 73.097H107.073C106.818 73.097 106.574 73.0483 106.341 72.9511C106.107 72.8555 105.903 72.7239 105.727 72.5562C105.553 72.3886 105.413 72.1924 105.306 71.9677C105.201 71.7414 105.149 71.5016 105.149 71.2484V70.9969L105.91 70.8737V71.2912C105.91 71.4421 105.942 71.5846 106.006 71.7187C106.07 71.8512 106.156 71.9669 106.265 72.0658C106.371 72.163 106.494 72.2402 106.635 72.2972C106.775 72.3559 106.921 72.3852 107.073 72.3852H107.583C107.735 72.3852 107.881 72.3626 108.021 72.3173C108.162 72.272 108.287 72.2075 108.397 72.1236C108.505 72.0398 108.591 71.9384 108.655 71.8193C108.719 71.7003 108.752 71.5653 108.752 71.4144C108.752 71.1897 108.702 71.0053 108.602 70.8611C108.504 70.7186 108.373 70.5987 108.209 70.5014C108.047 70.4059 107.862 70.3262 107.654 70.2625C107.444 70.1988 107.23 70.1351 107.012 70.0714C106.794 70.0093 106.581 69.9372 106.371 69.8551C106.163 69.7729 105.978 69.6656 105.816 69.5332C105.652 69.399 105.521 69.2322 105.423 69.0327C105.323 68.8315 105.273 68.5816 105.273 68.2832C105.273 68.0283 105.323 67.7961 105.423 67.5865C105.521 67.3753 105.654 67.1942 105.823 67.0433C105.992 66.8907 106.189 66.7725 106.414 66.6886C106.639 66.6048 106.88 66.5629 107.137 66.5629H107.583C107.838 66.5629 108.079 66.6115 108.305 66.7088C108.534 66.8043 108.732 66.936 108.901 67.1036C109.07 67.2713 109.203 67.4675 109.299 67.6921C109.396 67.9185 109.444 68.1583 109.444 68.4114V68.4366L108.683 68.5598V68.3687C108.683 68.2178 108.654 68.0753 108.597 67.9411C108.539 67.8087 108.461 67.693 108.361 67.5941C108.263 67.4968 108.147 67.4197 108.011 67.3627C107.878 67.304 107.735 67.2747 107.583 67.2747H107.137C106.983 67.2747 106.839 67.2973 106.706 67.3426C106.572 67.3878 106.455 67.4524 106.356 67.5362C106.258 67.62 106.179 67.7215 106.12 67.8405C106.063 67.9596 106.034 68.0946 106.034 68.2455C106.034 68.4634 106.084 68.6403 106.183 68.7761C106.281 68.9136 106.412 69.0293 106.576 69.1232C106.739 69.2171 106.925 69.2959 107.134 69.3596C107.342 69.4233 107.554 69.4887 107.77 69.5558C107.987 69.6245 108.2 69.7017 108.409 69.7872C108.617 69.8727 108.802 69.9833 108.965 70.1192C109.129 70.2533 109.26 70.4218 109.358 70.6247C109.457 70.8276 109.507 71.0782 109.507 71.3767ZM113.969 72.9737H113.275C113.045 72.9737 112.827 72.931 112.623 72.8455C112.418 72.7583 112.241 72.6392 112.091 72.4883C111.94 72.3374 111.82 72.1614 111.731 71.9602C111.643 71.7606 111.599 71.546 111.599 71.3163V67.4054H110.46V66.6861H111.599V65.1746L112.359 65.0539V66.6861H113.969V67.4054H112.359V71.3515C112.359 71.479 112.383 71.5972 112.43 71.7061C112.478 71.8151 112.543 71.9099 112.626 71.9903C112.708 72.0725 112.806 72.1371 112.917 72.184C113.029 72.231 113.148 72.2544 113.275 72.2544H113.969V72.9737ZM116.444 65.1746H115.559V64.1686H116.444V65.1746ZM116.383 72.9737H115.62V66.6861H116.383V72.9737ZM122.455 73.766C122.455 74.0191 122.406 74.2522 122.308 74.4651C122.211 74.6781 122.079 74.8608 121.91 75.0134C121.741 75.1643 121.542 75.2817 121.314 75.3655C121.087 75.4494 120.847 75.4913 120.591 75.4913H120.274C120.019 75.4913 119.778 75.4494 119.552 75.3655C119.324 75.2817 119.125 75.1643 118.956 75.0134C118.787 74.8608 118.654 74.6781 118.558 74.4651C118.46 74.2522 118.411 74.0191 118.411 73.766V73.7408C118.411 73.496 118.457 73.2713 118.548 73.0668C118.639 72.8622 118.763 72.6837 118.921 72.5311C118.721 72.412 118.563 72.2519 118.446 72.0507C118.328 71.8478 118.269 71.6232 118.269 71.3767C118.269 71.1554 118.316 70.95 118.411 70.7605C118.506 70.5694 118.636 70.4151 118.801 70.2977C118.604 70.125 118.447 69.918 118.332 69.6765C118.216 69.4351 118.157 69.171 118.157 68.8843V68.4114C118.157 68.1583 118.206 67.9185 118.305 67.6921C118.401 67.4675 118.534 67.2713 118.703 67.1036C118.872 66.936 119.069 66.8043 119.296 66.7088C119.524 66.6115 119.766 66.5629 120.021 66.5629H120.338C120.647 66.5629 120.933 66.6316 121.195 66.7691C121.457 66.9066 121.674 67.0919 121.846 67.325L122.262 66.6861H122.516V68.8843C122.516 69.1375 122.467 69.3772 122.371 69.6036C122.273 69.8283 122.14 70.0244 121.971 70.1921C121.802 70.3598 121.604 70.4922 121.377 70.5895C121.149 70.685 120.907 70.7328 120.652 70.7328H119.552C119.464 70.7328 119.381 70.7504 119.303 70.7856C119.224 70.8192 119.155 70.8653 119.096 70.924C119.036 70.981 118.99 71.0489 118.956 71.1277C118.924 71.2082 118.908 71.2912 118.908 71.3767C118.908 71.4639 118.924 71.546 118.956 71.6232C118.99 71.7003 119.036 71.769 119.096 71.8294C119.155 71.8881 119.224 71.9342 119.303 71.9677C119.381 71.9996 119.464 72.0155 119.552 72.0155H120.591C120.847 72.0155 121.087 72.0574 121.314 72.1413C121.542 72.2251 121.741 72.3433 121.91 72.4959C122.079 72.6468 122.211 72.8287 122.308 73.0416C122.406 73.2546 122.455 73.4876 122.455 73.7408V73.766ZM121.76 68.927V68.3687C121.76 68.2178 121.731 68.0753 121.674 67.9411C121.616 67.8087 121.537 67.693 121.436 67.5941C121.334 67.4968 121.217 67.4197 121.083 67.3627C120.948 67.304 120.804 67.2747 120.652 67.2747H120.021C119.869 67.2747 119.725 67.304 119.59 67.3627C119.456 67.4197 119.34 67.4968 119.24 67.5941C119.142 67.693 119.064 67.8087 119.007 67.9411C118.949 68.0753 118.921 68.2178 118.921 68.3687V68.927C118.921 69.0779 118.949 69.2205 119.007 69.3546C119.064 69.487 119.142 69.6027 119.24 69.7017C119.34 69.7989 119.456 69.8769 119.59 69.9356C119.725 69.9926 119.869 70.0211 120.021 70.0211H120.652C120.804 70.0211 120.948 69.9926 121.083 69.9356C121.217 69.8769 121.334 69.7989 121.436 69.7017C121.537 69.6027 121.616 69.487 121.674 69.3546C121.731 69.2205 121.76 69.0779 121.76 68.927ZM121.73 73.8037V73.7056C121.73 73.553 121.701 73.4164 121.643 73.2957C121.586 73.1749 121.507 73.0735 121.408 72.9913C121.308 72.9092 121.191 72.8463 121.058 72.8027C120.924 72.7574 120.781 72.7348 120.627 72.7348H120.239C120.085 72.7348 119.941 72.7574 119.808 72.8027C119.674 72.8463 119.558 72.9092 119.458 72.9913C119.358 73.0735 119.28 73.1749 119.222 73.2957C119.165 73.4164 119.136 73.553 119.136 73.7056V73.8037C119.136 73.9546 119.165 74.0896 119.222 74.2086C119.28 74.3277 119.358 74.4291 119.458 74.5129C119.558 74.5968 119.674 74.6605 119.808 74.7041C119.941 74.7493 120.085 74.772 120.239 74.772H120.627C120.781 74.772 120.924 74.7493 121.058 74.7041C121.191 74.6605 121.308 74.5968 121.408 74.5129C121.507 74.4291 121.586 74.3277 121.643 74.2086C121.701 74.0896 121.73 73.9546 121.73 73.8037ZM124.99 65.1746H124.105V64.1686H124.99V65.1746ZM124.929 72.9737H124.169V66.6861H124.929V72.9737ZM130.938 71.2484C130.938 71.5016 130.89 71.7414 130.793 71.9677C130.695 72.1924 130.562 72.3886 130.393 72.5562C130.224 72.7239 130.026 72.8555 129.799 72.9511C129.573 73.0483 129.331 73.097 129.074 73.097H128.567C128.312 73.097 128.071 73.0483 127.845 72.9511C127.617 72.8555 127.418 72.7239 127.249 72.5562C127.08 72.3886 126.947 72.1924 126.851 71.9677C126.753 71.7414 126.704 71.5016 126.704 71.2484V68.4114C126.704 68.1583 126.753 67.9185 126.851 67.6921C126.947 67.4675 127.08 67.2713 127.249 67.1036C127.418 66.936 127.617 66.8043 127.845 66.7088C128.071 66.6115 128.312 66.5629 128.567 66.5629H129.074C129.331 66.5629 129.573 66.6115 129.799 66.7088C130.026 66.8043 130.224 66.936 130.393 67.1036C130.562 67.2713 130.695 67.4675 130.793 67.6921C130.89 67.9185 130.938 68.1583 130.938 68.4114V71.2484ZM130.177 71.2912V68.3687C130.177 68.2178 130.148 68.0753 130.091 67.9411C130.034 67.8087 129.955 67.693 129.855 67.5941C129.756 67.4968 129.639 67.4197 129.505 67.3627C129.372 67.304 129.228 67.2747 129.074 67.2747H128.567C128.415 67.2747 128.272 67.304 128.136 67.3627C128.003 67.4197 127.887 67.4968 127.789 67.5941C127.689 67.693 127.611 67.8087 127.553 67.9411C127.496 68.0753 127.467 68.2178 127.467 68.3687V71.2912C127.467 71.4421 127.496 71.5846 127.553 71.7187C127.611 71.8512 127.689 71.9669 127.789 72.0658C127.887 72.163 128.003 72.2402 128.136 72.2972C128.272 72.3559 128.415 72.3852 128.567 72.3852H129.074C129.228 72.3852 129.372 72.3559 129.505 72.2972C129.639 72.2402 129.756 72.163 129.855 72.0658C129.955 71.9669 130.034 71.8512 130.091 71.7187C130.148 71.5846 130.177 71.4421 130.177 71.2912ZM136.693 72.9737H136.439L136.018 72.3349C135.846 72.568 135.63 72.7532 135.369 72.8907C135.109 73.0282 134.824 73.097 134.515 73.097H134.322C134.067 73.097 133.826 73.0483 133.6 72.9511C133.373 72.8555 133.175 72.7239 133.004 72.5562C132.835 72.3886 132.702 72.1924 132.606 71.9677C132.51 71.7414 132.461 71.5016 132.461 71.2484V66.6861H133.222V71.2912C133.222 71.4421 133.251 71.5846 133.308 71.7187C133.366 71.8512 133.444 71.9669 133.544 72.0658C133.642 72.163 133.759 72.2402 133.894 72.2972C134.027 72.3559 134.17 72.3852 134.322 72.3852H134.832C134.984 72.3852 135.127 72.3559 135.26 72.2972C135.396 72.2402 135.512 72.163 135.61 72.0658C135.71 71.9669 135.789 71.8512 135.846 71.7187C135.904 71.5846 135.932 71.4421 135.932 71.2912V66.6861H136.693V72.9737ZM142.575 71.3767C142.575 71.6315 142.523 71.8638 142.42 72.0733C142.317 72.2846 142.177 72.4657 141.999 72.6166C141.822 72.7692 141.616 72.8874 141.383 72.9712C141.15 73.055 140.905 73.097 140.648 73.097H140.141C139.886 73.097 139.641 73.0483 139.408 72.9511C139.175 72.8555 138.97 72.7239 138.795 72.5562C138.619 72.3886 138.479 72.1924 138.374 71.9677C138.269 71.7414 138.217 71.5016 138.217 71.2484V70.9969L138.977 70.8737V71.2912C138.977 71.4421 139.009 71.5846 139.073 71.7187C139.138 71.8512 139.223 71.9669 139.33 72.0658C139.438 72.163 139.562 72.2402 139.702 72.2972C139.843 72.3559 139.989 72.3852 140.141 72.3852H140.648C140.802 72.3852 140.949 72.3626 141.089 72.3173C141.229 72.272 141.354 72.2075 141.462 72.1236C141.572 72.0398 141.659 71.9384 141.723 71.8193C141.787 71.7003 141.819 71.5653 141.819 71.4144C141.819 71.1897 141.769 71.0053 141.67 70.8611C141.572 70.7186 141.441 70.5987 141.277 70.5014C141.114 70.4059 140.928 70.3262 140.719 70.2625C140.511 70.1988 140.298 70.1351 140.08 70.0714C139.86 70.0093 139.646 69.9372 139.439 69.8551C139.231 69.7729 139.045 69.6656 138.881 69.5332C138.719 69.399 138.588 69.2322 138.488 69.0327C138.39 68.8315 138.341 68.5816 138.341 68.2832C138.341 68.0283 138.39 67.7961 138.488 67.5865C138.588 67.3753 138.722 67.1942 138.891 67.0433C139.06 66.8907 139.257 66.7725 139.482 66.6886C139.706 66.6048 139.947 66.5629 140.204 66.5629H140.648C140.905 66.5629 141.146 66.6115 141.373 66.7088C141.599 66.8043 141.797 66.936 141.966 67.1036C142.135 67.2713 142.269 67.4675 142.367 67.6921C142.463 67.9185 142.511 68.1583 142.511 68.4114V68.4366L141.751 68.5598V68.3687C141.751 68.2178 141.722 68.0753 141.665 67.9411C141.607 67.8087 141.528 67.693 141.429 67.5941C141.329 67.4968 141.212 67.4197 141.079 67.3627C140.945 67.304 140.802 67.2747 140.648 67.2747H140.204C140.05 67.2747 139.907 67.2973 139.773 67.3426C139.638 67.3878 139.521 67.4524 139.423 67.5362C139.324 67.62 139.245 67.7215 139.188 67.8405C139.13 67.9596 139.101 68.0946 139.101 68.2455C139.101 68.4634 139.151 68.6403 139.251 68.7761C139.349 68.9136 139.48 69.0293 139.644 69.1232C139.806 69.2171 139.991 69.2959 140.199 69.3596C140.409 69.4233 140.622 69.4887 140.838 69.5558C141.054 69.6245 141.266 69.7017 141.474 69.7872C141.684 69.8727 141.87 69.9833 142.032 70.1192C142.194 70.2533 142.325 70.4218 142.425 70.6247C142.525 70.8276 142.575 71.0782 142.575 71.3767ZM151.182 70.934C151.182 71.2342 151.125 71.515 151.012 71.7766C150.899 72.0381 150.743 72.267 150.546 72.4632C150.346 72.661 150.115 72.8161 149.851 72.9285C149.587 73.0408 149.305 73.097 149.004 73.097H148.751C148.448 73.097 148.164 73.0408 147.899 72.9285C147.632 72.8161 147.399 72.661 147.202 72.4632C147.004 72.267 146.848 72.0381 146.735 71.7766C146.622 71.515 146.565 71.2342 146.565 70.934V70.5844L147.364 70.4562V70.934C147.364 71.1319 147.401 71.3155 147.475 71.4848C147.55 71.6542 147.652 71.8034 147.782 71.9325C147.911 72.0616 148.061 72.163 148.233 72.2368C148.404 72.3106 148.588 72.3475 148.786 72.3475H148.966C149.16 72.3475 149.344 72.3106 149.516 72.2368C149.69 72.163 149.842 72.0616 149.97 71.9325C150.097 71.8034 150.197 71.6542 150.272 71.4848C150.346 71.3155 150.383 71.1319 150.383 70.934V64.1686H151.182V70.934ZM156.937 71.2484C156.937 71.5016 156.889 71.7414 156.793 71.9677C156.696 72.1924 156.563 72.3886 156.392 72.5562C156.223 72.7239 156.025 72.8555 155.799 72.9511C155.572 73.0483 155.33 73.097 155.074 73.097H154.567C154.311 73.097 154.07 73.0483 153.844 72.9511C153.616 72.8555 153.417 72.7239 153.248 72.5562C153.079 72.3886 152.946 72.1924 152.85 71.9677C152.752 71.7414 152.703 71.5016 152.703 71.2484V68.4114C152.703 68.1583 152.752 67.9185 152.85 67.6921C152.946 67.4675 153.079 67.2713 153.248 67.1036C153.417 66.936 153.616 66.8043 153.844 66.7088C154.07 66.6115 154.311 66.5629 154.567 66.5629H155.074C155.33 66.5629 155.572 66.6115 155.799 66.7088C156.025 66.8043 156.223 66.936 156.392 67.1036C156.563 67.2713 156.696 67.4675 156.793 67.6921C156.889 67.9185 156.937 68.1583 156.937 68.4114V69.8903H153.466V71.2912C153.466 71.4421 153.495 71.5846 153.552 71.7187C153.61 71.8512 153.688 71.9669 153.788 72.0658C153.886 72.163 154.003 72.2402 154.138 72.2972C154.272 72.3559 154.414 72.3852 154.567 72.3852H155.074C155.227 72.3852 155.371 72.3559 155.505 72.2972C155.638 72.2402 155.755 72.163 155.854 72.0658C155.954 71.9669 156.033 71.8512 156.09 71.7187C156.148 71.5846 156.176 71.4421 156.176 71.2912V70.8737L156.937 70.9969V71.2484ZM156.176 69.3018V68.3687C156.176 68.2178 156.148 68.0753 156.09 67.9411C156.033 67.8087 155.954 67.693 155.854 67.5941C155.755 67.4968 155.638 67.4197 155.505 67.3627C155.371 67.304 155.227 67.2747 155.074 67.2747H154.567C154.414 67.2747 154.272 67.304 154.138 67.3627C154.003 67.4197 153.886 67.4968 153.788 67.5941C153.688 67.693 153.61 67.8087 153.552 67.9411C153.495 68.0753 153.466 68.2178 153.466 68.3687V69.3018H156.176ZM165.912 66.6861L163.795 72.9737H163.382L161.896 68.2329L161.871 67.9084L161.845 68.2329L160.36 72.9737H159.939L157.822 66.6861H158.595L160.106 71.4396L160.131 71.764L160.157 71.4396L161.642 66.6861H162.099L163.579 71.4396L163.602 71.764L163.628 71.4396L165.139 66.6861H165.912ZM171.036 71.2484C171.036 71.5016 170.988 71.7414 170.891 71.9677C170.795 72.1924 170.662 72.3886 170.493 72.5562C170.322 72.7239 170.124 72.8555 169.897 72.9511C169.671 73.0483 169.429 73.097 169.172 73.097H168.665C168.41 73.097 168.169 73.0483 167.943 72.9511C167.714 72.8555 167.516 72.7239 167.347 72.5562C167.178 72.3886 167.045 72.1924 166.949 71.9677C166.851 71.7414 166.802 71.5016 166.802 71.2484V68.4114C166.802 68.1583 166.851 67.9185 166.949 67.6921C167.045 67.4675 167.178 67.2713 167.347 67.1036C167.516 66.936 167.714 66.8043 167.943 66.7088C168.169 66.6115 168.41 66.5629 168.665 66.5629H169.172C169.429 66.5629 169.671 66.6115 169.897 66.7088C170.124 66.8043 170.322 66.936 170.493 67.1036C170.662 67.2713 170.795 67.4675 170.891 67.6921C170.988 67.9185 171.036 68.1583 171.036 68.4114V69.8903H167.565V71.2912C167.565 71.4421 167.594 71.5846 167.651 71.7187C167.709 71.8512 167.787 71.9669 167.887 72.0658C167.985 72.163 168.102 72.2402 168.237 72.2972C168.37 72.3559 168.513 72.3852 168.665 72.3852H169.172C169.326 72.3852 169.47 72.3559 169.603 72.2972C169.738 72.2402 169.855 72.163 169.953 72.0658C170.053 71.9669 170.131 71.8512 170.189 71.7187C170.246 71.5846 170.275 71.4421 170.275 71.2912V70.8737L171.036 70.9969V71.2484ZM170.275 69.3018V68.3687C170.275 68.2178 170.246 68.0753 170.189 67.9411C170.131 67.8087 170.053 67.693 169.953 67.5941C169.855 67.4968 169.738 67.4197 169.603 67.3627C169.47 67.304 169.326 67.2747 169.172 67.2747H168.665C168.513 67.2747 168.37 67.304 168.237 67.3627C168.102 67.4197 167.985 67.4968 167.887 67.5941C167.787 67.693 167.709 67.8087 167.651 67.9411C167.594 68.0753 167.565 68.2178 167.565 68.3687V69.3018H170.275ZM173.573 72.9737H172.813V64.1686H173.573V72.9737ZM177.975 67.4054H177.212C177.059 67.4054 176.917 67.4339 176.783 67.4909C176.648 67.548 176.531 67.6259 176.433 67.7248C176.334 67.8221 176.255 67.9378 176.197 68.0719C176.14 68.2044 176.111 68.3461 176.111 68.497V72.9737H175.351V66.6861H175.604L176.017 67.325C176.192 67.0919 176.41 66.9066 176.672 66.7691C176.934 66.6316 177.219 66.5629 177.529 66.5629H177.975V67.4054ZM183.223 66.6861L180.016 75.4913H179.28L180.406 72.433L178.35 66.6861H179.113L180.764 71.4521L180.789 71.7766L180.814 71.4521L182.46 66.6861H183.223ZM191.069 72.9737L190.481 70.924H187.672L187.089 72.9737H186.26L188.859 64.1686H189.279L191.893 72.9737H191.069ZM189.051 66.1102L187.888 70.1669H190.271L189.102 66.1102L189.077 65.7832L189.051 66.1102ZM197.01 72.9737H196.756L196.335 72.3349C196.163 72.568 195.946 72.7532 195.686 72.8907C195.426 73.0282 195.141 73.097 194.832 73.097H194.639C194.384 73.097 194.143 73.0483 193.917 72.9511C193.688 72.8555 193.49 72.7239 193.321 72.5562C193.152 72.3886 193.019 72.1924 192.923 71.9677C192.826 71.7414 192.778 71.5016 192.778 71.2484V66.6861H193.539V71.2912C193.539 71.4421 193.567 71.5846 193.625 71.7187C193.682 71.8512 193.761 71.9669 193.861 72.0658C193.959 72.163 194.075 72.2402 194.211 72.2972C194.344 72.3559 194.487 72.3852 194.639 72.3852H195.149C195.301 72.3852 195.444 72.3559 195.577 72.2972C195.712 72.2402 195.829 72.163 195.927 72.0658C196.027 71.9669 196.105 71.8512 196.163 71.7187C196.22 71.5846 196.249 71.4421 196.249 71.2912V66.6861H197.01V72.9737ZM202.767 71.2484C202.767 71.5016 202.718 71.7414 202.62 71.9677C202.524 72.1924 202.391 72.3886 202.222 72.5562C202.053 72.7239 201.854 72.8555 201.626 72.9511C201.4 73.0483 201.159 73.097 200.904 73.097H200.397C200.14 73.097 199.898 73.0483 199.672 72.9511C199.445 72.8555 199.247 72.7239 199.078 72.5562C198.909 72.3886 198.776 72.1924 198.678 71.9677C198.581 71.7414 198.533 71.5016 198.533 71.2484V68.4114C198.533 68.1583 198.581 67.9185 198.678 67.6921C198.776 67.4675 198.909 67.2713 199.078 67.1036C199.247 66.936 199.445 66.8043 199.672 66.7088C199.898 66.6115 200.14 66.5629 200.397 66.5629H200.904C201.159 66.5629 201.4 66.6115 201.626 66.7088C201.854 66.8043 202.053 66.936 202.222 67.1036C202.391 67.2713 202.524 67.4675 202.62 67.6921C202.718 67.9185 202.767 68.1583 202.767 68.4114V68.663L202.004 68.7862V68.3687C202.004 68.2178 201.975 68.0753 201.918 67.9411C201.86 67.8087 201.782 67.693 201.682 67.5941C201.584 67.4968 201.468 67.4197 201.335 67.3627C201.2 67.304 201.056 67.2747 200.904 67.2747H200.397C200.243 67.2747 200.099 67.304 199.966 67.3627C199.832 67.4197 199.716 67.4968 199.616 67.5941C199.516 67.693 199.437 67.8087 199.38 67.9411C199.323 68.0753 199.294 68.2178 199.294 68.3687V71.2912C199.294 71.4421 199.323 71.5846 199.38 71.7187C199.437 71.8512 199.516 71.9669 199.616 72.0658C199.716 72.163 199.832 72.2402 199.966 72.2972C200.099 72.3559 200.243 72.3852 200.397 72.3852H200.904C201.056 72.3852 201.2 72.3559 201.335 72.2972C201.468 72.2402 201.584 72.163 201.682 72.0658C201.782 71.9669 201.86 71.8512 201.918 71.7187C201.975 71.5846 202.004 71.4421 202.004 71.2912V70.8737L202.767 70.9969V71.2484ZM207.29 72.9737H206.598C206.366 72.9737 206.148 72.931 205.944 72.8455C205.739 72.7583 205.562 72.6392 205.411 72.4883C205.261 72.3374 205.142 72.1614 205.054 71.9602C204.964 71.7606 204.92 71.546 204.92 71.3163V67.4054H203.781V66.6861H204.92V65.1746L205.68 65.0539V66.6861H207.29V67.4054H205.68V71.3515C205.68 71.479 205.704 71.5972 205.751 71.7061C205.798 71.8151 205.864 71.9099 205.946 71.9903C206.029 72.0725 206.126 72.1371 206.238 72.184C206.349 72.231 206.469 72.2544 206.598 72.2544H207.29V72.9737ZM209.765 65.1746H208.88V64.1686H209.765V65.1746ZM209.704 72.9737H208.943V66.6861H209.704V72.9737ZM215.712 71.2484C215.712 71.5016 215.664 71.7414 215.568 71.9677C215.471 72.1924 215.339 72.3886 215.17 72.5562C214.999 72.7239 214.8 72.8555 214.574 72.9511C214.347 73.0483 214.106 73.097 213.849 73.097H213.342C213.087 73.097 212.846 73.0483 212.619 72.9511C212.391 72.8555 212.192 72.7239 212.023 72.5562C211.854 72.3886 211.722 72.1924 211.625 71.9677C211.527 71.7414 211.478 71.5016 211.478 71.2484V68.4114C211.478 68.1583 211.527 67.9185 211.625 67.6921C211.722 67.4675 211.854 67.2713 212.023 67.1036C212.192 66.936 212.391 66.8043 212.619 66.7088C212.846 66.6115 213.087 66.5629 213.342 66.5629H213.849C214.106 66.5629 214.347 66.6115 214.574 66.7088C214.8 66.8043 214.999 66.936 215.17 67.1036C215.339 67.2713 215.471 67.4675 215.568 67.6921C215.664 67.9185 215.712 68.1583 215.712 68.4114V71.2484ZM214.952 71.2912V68.3687C214.952 68.2178 214.923 68.0753 214.865 67.9411C214.808 67.8087 214.729 67.693 214.63 67.5941C214.532 67.4968 214.415 67.4197 214.28 67.3627C214.146 67.304 214.003 67.2747 213.849 67.2747H213.342C213.19 67.2747 213.047 67.304 212.913 67.3627C212.778 67.4197 212.661 67.4968 212.563 67.5941C212.464 67.693 212.385 67.8087 212.328 67.9411C212.27 68.0753 212.241 68.2178 212.241 68.3687V71.2912C212.241 71.4421 212.27 71.5846 212.328 71.7187C212.385 71.8512 212.464 71.9669 212.563 72.0658C212.661 72.163 212.778 72.2402 212.913 72.2972C213.047 72.3559 213.19 72.3852 213.342 72.3852H213.849C214.003 72.3852 214.146 72.3559 214.28 72.2972C214.415 72.2402 214.532 72.163 214.63 72.0658C214.729 71.9669 214.808 71.8512 214.865 71.7187C214.923 71.5846 214.952 71.4421 214.952 71.2912ZM221.47 72.9737H220.707V68.3687C220.707 68.2178 220.678 68.0753 220.621 67.9411C220.563 67.8087 220.484 67.693 220.385 67.5941C220.287 67.4968 220.17 67.4197 220.035 67.3627C219.901 67.304 219.759 67.2747 219.606 67.2747H219.099C218.946 67.2747 218.802 67.304 218.668 67.3627C218.535 67.4197 218.418 67.4968 218.319 67.5941C218.219 67.693 218.14 67.8087 218.083 67.9411C218.025 68.0753 217.997 68.2178 217.997 68.3687V72.9737H217.236V66.6861H217.489L217.903 67.325C218.077 67.0919 218.295 66.9066 218.557 66.7691C218.819 66.6316 219.104 66.5629 219.414 66.5629H219.606C219.862 66.5629 220.103 66.6115 220.329 66.7088C220.557 66.8043 220.756 66.936 220.925 67.1036C221.094 67.2713 221.226 67.4675 221.323 67.6921C221.421 67.9185 221.47 68.1583 221.47 68.4114V72.9737ZM231.155 72.9737H230.356V68.9522H226.959V72.9737H226.16V64.1686H226.959V68.1977H230.356V64.1686H231.155V72.9737ZM237.039 71.2484C237.039 71.5016 236.991 71.7414 236.894 71.9677C236.798 72.1924 236.665 72.3886 236.496 72.5562C236.327 72.7239 236.129 72.8555 235.901 72.9511C235.674 73.0483 235.433 73.097 235.178 73.097H234.668C234.413 73.097 234.172 73.0483 233.946 72.9511C233.718 72.8555 233.519 72.7239 233.35 72.5562C233.181 72.3886 233.048 72.1924 232.952 71.9677C232.856 71.7414 232.808 71.5016 232.808 71.2484V68.4114C232.808 68.1583 232.856 67.9185 232.952 67.6921C233.048 67.4675 233.181 67.2713 233.35 67.1036C233.519 66.936 233.718 66.8043 233.946 66.7088C234.172 66.6115 234.413 66.5629 234.668 66.5629H235.178C235.433 66.5629 235.674 66.6115 235.901 66.7088C236.129 66.8043 236.327 66.936 236.496 67.1036C236.665 67.2713 236.798 67.4675 236.894 67.6921C236.991 67.9185 237.039 68.1583 237.039 68.4114V71.2484ZM236.278 71.2912V68.3687C236.278 68.2178 236.25 68.0753 236.192 67.9411C236.135 67.8087 236.056 67.693 235.956 67.5941C235.858 67.4968 235.742 67.4197 235.607 67.3627C235.473 67.304 235.33 67.2747 235.178 67.2747H234.668C234.516 67.2747 234.374 67.304 234.24 67.3627C234.105 67.4197 233.988 67.4968 233.89 67.5941C233.79 67.693 233.712 67.8087 233.654 67.9411C233.597 68.0753 233.568 68.2178 233.568 68.3687V71.2912C233.568 71.4421 233.597 71.5846 233.654 71.7187C233.712 71.8512 233.79 71.9669 233.89 72.0658C233.988 72.163 234.105 72.2402 234.24 72.2972C234.374 72.3559 234.516 72.3852 234.668 72.3852H235.178C235.33 72.3852 235.473 72.3559 235.607 72.2972C235.742 72.2402 235.858 72.163 235.956 72.0658C236.056 71.9669 236.135 71.8512 236.192 71.7187C236.25 71.5846 236.278 71.4421 236.278 71.2912ZM242.797 72.9737H242.543L242.122 72.3349C241.948 72.568 241.731 72.7532 241.471 72.8907C241.21 73.0282 240.926 73.097 240.616 73.097H240.426C240.169 73.097 239.927 73.0483 239.701 72.9511C239.475 72.8555 239.277 72.7239 239.108 72.5562C238.939 72.3886 238.805 72.1924 238.707 71.9677C238.611 71.7414 238.563 71.5016 238.563 71.2484V66.6861H239.323V71.2912C239.323 71.4421 239.352 71.5846 239.409 71.7187C239.467 71.8512 239.546 71.9669 239.645 72.0658C239.745 72.163 239.862 72.2402 239.995 72.2972C240.129 72.3559 240.272 72.3852 240.426 72.3852H240.933C241.085 72.3852 241.229 72.3559 241.364 72.2972C241.498 72.2402 241.613 72.163 241.711 72.0658C241.811 71.9669 241.89 71.8512 241.947 71.7187C242.005 71.5846 242.033 71.4421 242.033 71.2912V66.6861H242.797V72.9737ZM248.676 71.3767C248.676 71.6315 248.624 71.8638 248.521 72.0733C248.418 72.2846 248.278 72.4657 248.1 72.6166C247.923 72.7692 247.718 72.8874 247.484 72.9712C247.251 73.055 247.007 73.097 246.752 73.097H246.242C245.987 73.097 245.743 73.0483 245.509 72.9511C245.276 72.8555 245.072 72.7239 244.896 72.5562C244.722 72.3886 244.581 72.1924 244.475 71.9677C244.37 71.7414 244.318 71.5016 244.318 71.2484V70.9969L245.078 70.8737V71.2912C245.078 71.4421 245.11 71.5846 245.175 71.7187C245.239 71.8512 245.324 71.9669 245.431 72.0658C245.539 72.163 245.663 72.2402 245.803 72.2972C245.944 72.3559 246.09 72.3852 246.242 72.3852H246.752C246.904 72.3852 247.05 72.3626 247.19 72.3173C247.33 72.272 247.456 72.2075 247.565 72.1236C247.674 72.0398 247.76 71.9384 247.824 71.8193C247.888 71.7003 247.92 71.5653 247.92 71.4144C247.92 71.1897 247.87 71.0053 247.771 70.8611C247.673 70.7186 247.542 70.5987 247.378 70.5014C247.216 70.4059 247.03 70.3262 246.823 70.2625C246.613 70.1988 246.399 70.1351 246.181 70.0714C245.963 70.0093 245.749 69.9372 245.54 69.8551C245.332 69.7729 245.146 69.6656 244.982 69.5332C244.82 69.399 244.689 69.2322 244.589 69.0327C244.491 68.8315 244.442 68.5816 244.442 68.2832C244.442 68.0283 244.491 67.7961 244.589 67.5865C244.689 67.3753 244.823 67.1942 244.992 67.0433C245.161 66.8907 245.358 66.7725 245.583 66.6886C245.808 66.6048 246.048 66.5629 246.305 66.5629H246.752C247.007 66.5629 247.248 66.6115 247.474 66.7088C247.701 66.8043 247.899 66.936 248.07 67.1036C248.239 67.2713 248.372 67.4675 248.468 67.6921C248.564 67.9185 248.612 68.1583 248.612 68.4114V68.4366L247.852 68.5598V68.3687C247.852 68.2178 247.823 68.0753 247.766 67.9411C247.708 67.8087 247.63 67.693 247.53 67.5941C247.432 67.4968 247.315 67.4197 247.18 67.3627C247.047 67.304 246.904 67.2747 246.752 67.2747H246.305C246.152 67.2747 246.008 67.2973 245.874 67.3426C245.741 67.3878 245.624 67.4524 245.525 67.5362C245.426 67.62 245.348 67.7215 245.289 67.8405C245.231 67.9596 245.203 68.0946 245.203 68.2455C245.203 68.4634 245.252 68.6403 245.352 68.7761C245.45 68.9136 245.581 69.0293 245.745 69.1232C245.907 69.2171 246.093 69.2959 246.303 69.3596C246.511 69.4233 246.723 69.4887 246.939 69.5558C247.156 69.6245 247.368 69.7017 247.576 69.7872C247.785 69.8727 247.971 69.9833 248.133 70.1192C248.297 70.2533 248.428 70.4218 248.526 70.6247C248.626 70.8276 248.676 71.0782 248.676 71.3767ZM254.37 71.2484C254.37 71.5016 254.321 71.7414 254.223 71.9677C254.127 72.1924 253.994 72.3886 253.825 72.5562C253.656 72.7239 253.457 72.8555 253.229 72.9511C253.003 73.0483 252.762 73.097 252.507 73.097H252C251.743 73.097 251.501 73.0483 251.275 72.9511C251.048 72.8555 250.85 72.7239 250.681 72.5562C250.511 72.3886 250.377 72.1924 250.281 71.9677C250.184 71.7414 250.136 71.5016 250.136 71.2484V68.4114C250.136 68.1583 250.184 67.9185 250.281 67.6921C250.377 67.4675 250.511 67.2713 250.681 67.1036C250.85 66.936 251.048 66.8043 251.275 66.7088C251.501 66.6115 251.743 66.5629 252 66.5629H252.507C252.762 66.5629 253.003 66.6115 253.229 66.7088C253.457 66.8043 253.656 66.936 253.825 67.1036C253.994 67.2713 254.127 67.4675 254.223 67.6921C254.321 67.9185 254.37 68.1583 254.37 68.4114V69.8903H250.897V71.2912C250.897 71.4421 250.926 71.5846 250.983 71.7187C251.04 71.8512 251.119 71.9669 251.219 72.0658C251.318 72.163 251.435 72.2402 251.569 72.2972C251.702 72.3559 251.846 72.3852 252 72.3852H252.507C252.659 72.3852 252.802 72.3559 252.935 72.2972C253.07 72.2402 253.187 72.163 253.285 72.0658C253.385 71.9669 253.463 71.8512 253.521 71.7187C253.578 71.5846 253.607 71.4421 253.607 71.2912V70.8737L254.37 70.9969V71.2484ZM253.607 69.3018V68.3687C253.607 68.2178 253.578 68.0753 253.521 67.9411C253.463 67.8087 253.385 67.693 253.285 67.5941C253.187 67.4968 253.07 67.4197 252.935 67.3627C252.802 67.304 252.659 67.2747 252.507 67.2747H252C251.846 67.2747 251.702 67.304 251.569 67.3627C251.435 67.4197 251.318 67.4968 251.219 67.5941C251.119 67.693 251.04 67.8087 250.983 67.9411C250.926 68.0753 250.897 68.2178 250.897 68.3687V69.3018H253.607Z" fill="#424D51"/>
</g>
</g>
</g>
</g>
<g clip-path="url(#clip9_2627_92)">
<g clip-path="url(#clip10_2627_92)">
<path d="M15.39 11.9273C15.419 12.1037 15.363 12.2801 15.4364 12.4507C15.4751 12.537 15.5601 12.5734 15.6084 12.6654C15.6316 12.7076 15.6239 12.7574 15.6509 12.7939L34.6144 42.8162C35.059 43.5218 35.8378 43.9398 36.6689 43.9398C37.4999 43.9398 38.275 43.5218 38.7214 42.8162L57.6946 12.7939C57.7468 12.7191 57.7371 12.6309 57.7777 12.5523C57.7951 12.5101 57.8434 12.489 57.8627 12.4507C57.8975 12.3663 57.8627 12.2801 57.8859 12.1957C57.9903 11.8621 58.0212 11.5457 57.9825 11.2006C57.9652 11.0894 57.9342 10.9936 57.8975 10.8785C57.8511 10.7041 57.8569 10.5181 57.77 10.357C57.6772 10.1979 57.5168 10.1135 57.4066 9.9755C57.3622 9.92757 57.3622 9.8643 57.31 9.82212L47.8302 0.680627C47.3746 0.245654 46.7675 0.00184208 46.1352 0H27.1678C26.5397 0 25.9309 0.247327 25.4786 0.680627L15.995 9.82404C15.9061 9.90265 15.8945 10.0234 15.8345 10.1135C15.765 10.2075 15.649 10.2554 15.593 10.357C15.533 10.4663 15.5504 10.5833 15.5079 10.6964C15.4162 10.9102 15.3607 11.1376 15.3436 11.3694C15.3224 11.5649 15.3552 11.7375 15.39 11.9273ZM34.2221 13.9481V33.1475L33.7099 32.3346L28.712 13.9481H34.2221ZM39.0693 13.9481H44.9891L40.0376 31.7L39.0732 33.2204V13.9481H39.0693ZM50.0122 13.9481H51.2587L49.0323 17.472L50.0122 13.9481ZM23.6967 13.9481L24.9066 18.398L22.0964 13.9481H23.6967ZM49.6217 9.11849H39.0693V4.80274H45.1476L49.6217 9.11849ZM28.1458 4.80274H34.224V9.11849H23.6716L28.1458 4.80274Z" fill="#111111"/>
<path d="M58.1661 29.7847C57.6734 29.3759 57.0379 29.1767 56.3979 29.2306C55.7579 29.2845 55.1653 29.587 54.7491 30.0722C54.5433 30.3133 54.3874 30.5922 54.2902 30.893C54.1931 31.1938 54.1567 31.5107 54.1831 31.8255C54.2095 32.1403 54.2981 32.4468 54.444 32.7276C54.5899 33.0084 54.7901 33.258 55.0332 33.462C61.3241 38.7344 64.9266 46.4917 64.9266 54.734C64.9266 70.2101 52.2386 82.7969 36.6418 82.7969C21.045 82.7969 8.35114 70.212 8.35114 54.734C8.35114 46.3268 12.1083 38.4372 18.6543 33.0938C19.1512 32.6891 19.4657 32.1051 19.5286 31.4703C19.5915 30.8355 19.3976 30.2019 18.9896 29.7089C18.5816 29.2159 17.9929 28.9039 17.353 28.8416C16.7131 28.7792 16.0744 28.9715 15.5774 29.3763C11.7975 32.4512 8.75366 36.321 6.66595 40.7058C4.57824 45.0906 3.49887 49.8808 3.50589 54.7301C3.50589 72.8463 18.3682 87.5977 36.6418 87.5977C54.9115 87.5977 69.7719 72.8559 69.7719 54.7301C69.7738 45.0748 65.5432 35.9793 58.1661 29.7847Z" fill="#111111"/>
<path d="M23.0897 36.3187C22.8778 36.0833 22.6211 35.8916 22.3344 35.7547C22.0477 35.6177 21.7367 35.5382 21.419 35.5205C21.1013 35.5029 20.7832 35.5476 20.4829 35.6519C20.1826 35.7563 19.906 35.9184 19.6689 36.1289C17.0366 38.4756 14.9316 41.3457 13.4908 44.5524C12.05 47.7592 11.3057 51.2308 11.3062 54.7416C11.3062 68.6015 22.6916 79.875 36.6823 79.875C50.6537 79.875 62.0179 68.5996 62.0179 54.7416C62.0179 47.6689 59.1266 41.1214 53.8697 36.3034C53.3976 35.8704 52.7715 35.6412 52.129 35.6662C51.4866 35.6911 50.8805 35.9683 50.444 36.4366C50.0075 36.9049 49.7765 37.5261 49.8017 38.1634C49.8269 38.8007 50.1062 39.402 50.5783 39.8349C54.8244 43.7366 57.1668 49.0263 57.1668 54.7416C57.1668 65.9576 47.9769 75.0684 36.6746 75.0684C25.3529 75.0684 16.1398 65.9576 16.1398 54.7416C16.1398 49.0071 18.6001 43.5295 22.8926 39.7218C23.1311 39.5114 23.3253 39.2564 23.4643 38.9713C23.6033 38.6863 23.6843 38.3769 23.7026 38.0608C23.7209 37.7447 23.6762 37.4281 23.571 37.1292C23.4659 36.8303 23.3023 36.5548 23.0897 36.3187Z" fill="#111111"/>
</g>
</g>
</g>
</g>
</g>
<defs>
<clipPath id="clip0_2627_92">
<rect width="402" height="88" fill="white"/>
</clipPath>
<clipPath id="clip1_2627_92">
<rect width="398.702" height="87.5977" fill="white" transform="translate(3.50586)"/>
</clipPath>
<clipPath id="clip2_2627_92">
<rect width="398.702" height="87.5977" fill="white" transform="translate(3.50586)"/>
</clipPath>
<clipPath id="clip3_2627_92">
<rect width="322.413" height="63.3847" fill="white" transform="translate(79.7952 12.1065)"/>
</clipPath>
<clipPath id="clip4_2627_92">
<rect width="322.413" height="63.3847" fill="white" transform="translate(79.7952 12.1065)"/>
</clipPath>
<clipPath id="clip5_2627_92">
<rect width="322.413" height="42.1188" fill="white" transform="translate(79.7952 12.1065)"/>
</clipPath>
<clipPath id="clip6_2627_92">
<rect width="322.413" height="42.1188" fill="white" transform="translate(79.7952 12.1065)"/>
</clipPath>
<clipPath id="clip7_2627_92">
<rect width="174.587" height="11.3227" fill="white" transform="translate(79.7952 64.1686)"/>
</clipPath>
<clipPath id="clip8_2627_92">
<rect width="174.587" height="11.3227" fill="white" transform="translate(79.7952 64.1686)"/>
</clipPath>
<clipPath id="clip9_2627_92">
<rect width="66.266" height="87.5977" fill="white" transform="translate(3.50586)"/>
</clipPath>
<clipPath id="clip10_2627_92">
<rect width="66.266" height="87.5977" fill="white" transform="translate(3.50586)"/>
</clipPath>
</defs>
</svg>
